<?xml version="1.0" encoding="utf-8"?>
<!-- Generator: Adobe Illustrator 26.4.1, SVG Export Plug-In . SVG Version: 6.00 Build 0)  -->
<svg version="1.1" xmlns="http://www.w3.org/2000/svg" xmlns:xlink="http://www.w3.org/1999/xlink" x="0px" y="0px"
	 viewBox="0 0 360.1 743" style="enable-background:new 0 0 360.1 743;" xml:space="preserve">
<style type="text/css">
	.st0{display:none;}
	.st1{fill:url(#SVGID_1_);}
	.st2{fill:url(#SVGID_00000137092049987814730270000013457684910550554773_);}
	.st3{fill:url(#SVGID_00000173122721241587001330000003749500102231795116_);}
	.st4{fill:url(#SVGID_00000049211948515623549710000010315812742115068072_);}
	.st5{fill:#43AC92;}
	.st6{fill:#FEF6D2;}
	.st7{fill:url(#SVGID_00000162311081163010074710000015072859382949901756_);}
	.st8{fill:url(#SVGID_00000003794565550066042230000001998453166455915449_);}
	.st9{fill:none;stroke:#FEF6D2;stroke-width:2;stroke-miterlimit:10;}
	.st10{fill:#FDF6D2;}
	.st11{fill:url(#SVGID_00000137824428192119790090000007654702489824379522_);}
	.st12{fill:url(#SVGID_00000146496363398318354120000018334262354961531024_);}
	.st13{fill:none;stroke:#FEF6D2;stroke-width:1.9999;stroke-miterlimit:9.9996;}
	.st14{fill:url(#SVGID_00000132781519295959224440000004686341217878705845_);}
	.st15{fill:#037F89;}
	.st16{fill:#1DCDE5;}
	.st17{fill:#FBF4D1;}
	.st18{opacity:0.9;fill-rule:evenodd;clip-rule:evenodd;fill:#FFFFFF;enable-background:new    ;}
</style>
<g id="Layer_1" class="st0">
	
		<image style="display:inline;overflow:visible;" width="334" height="733" xlink:href="background-01-l.png"  transform="matrix(1 0 0 1 0 5)">
	</image>
</g>
<g id="Layer_2">
	<g>
		
			<linearGradient id="SVGID_1_" gradientUnits="userSpaceOnUse" x1="-454.2246" y1="-105.4383" x2="-259.8058" y2="88.9805" gradientTransform="matrix(-1 0 0 -1 -257.3371 372)">
			<stop  offset="0" style="stop-color:#00A862"/>
			<stop  offset="0.4903" style="stop-color:#1EFF8B"/>
			<stop  offset="1" style="stop-color:#FAFD2D"/>
		</linearGradient>
		<path class="st1" d="M281.6,3.9c0,0,21.8,102.2,2.6,164.7C265,231,247.3,270.4,247.3,270.4L226.4,318L208,354.3l-19.7,39
			l-16.1,29.1l-15,23.6L5.4,668.9c0,0-85.3,75.3-102.3,72.9l-8.2-28.4c0,0,254.1-233.9,279.8-350.7c5-22.7,12.1-45,21.5-66.3
			c30-66.9,84.2-194.4,91.6-257.6"/>
		<g>
			
				<linearGradient id="SVGID_00000065760971921982310370000008105558314780297104_" gradientUnits="userSpaceOnUse" x1="-530.8967" y1="-1.5874" x2="-489.083" y2="40.2262" gradientTransform="matrix(-1 0 0 -1 -257.3371 372)">
				<stop  offset="0" style="stop-color:#00A862"/>
				<stop  offset="0.4903" style="stop-color:#1EFF8B"/>
				<stop  offset="1" style="stop-color:#FAFD2D"/>
			</linearGradient>
			<path style="fill:url(#SVGID_00000065760971921982310370000008105558314780297104_);" d="M176.3,413.6
				c-5.4,8.5-8.7,13.6-8.7,13.6s55.8-20.3,93.3-45c15.7-10.3,35.3-30.6,52.8-50.7l0,0c20.2-27.5,29-48.6,29-48.6l-4.2-0.5
				c-18.7,35.4-41.2,61.5-63.8,80.8c-1.1-11.3-0.2-39.4,20.9-93.1l-1.5-0.7c0,0-18,25.8-32.2,104C227.8,398.6,195,409.2,176.3,413.6
				z"/>
			
				<linearGradient id="SVGID_00000114047429032887634560000014372435164415326873_" gradientUnits="userSpaceOnUse" x1="-226.9731" y1="-267.7614" x2="-207.2574" y2="-248.0454" gradientTransform="matrix(-1 0 0 -1 -257.3371 372)">
				<stop  offset="0" style="stop-color:#00A862"/>
				<stop  offset="0.4903" style="stop-color:#1EFF8B"/>
				<stop  offset="1" style="stop-color:#FAFD2D"/>
			</linearGradient>
			<path style="fill:url(#SVGID_00000114047429032887634560000014372435164415326873_);" d="M-113.6,683.6l2.8,9.7
				c4.2-2.3,8.5-4.8,13-7.6c30.1-18.3,63.8-42.2,101.5-79.9c21.2-21.3,33.6-32.6,29.9-36C29.7,566.3-23.5,627.5-67,658
				C-81.8,668.3-97.4,676.7-113.6,683.6z"/>
			
				<linearGradient id="SVGID_00000107578329311177397880000017407503668916911499_" gradientUnits="userSpaceOnUse" x1="-308.9964" y1="171.5027" x2="-281.9009" y2="198.598" gradientTransform="matrix(-1 0 0 -1 -257.3371 744)">
				<stop  offset="0" style="stop-color:#00A862"/>
				<stop  offset="0.4903" style="stop-color:#1EFF8B"/>
				<stop  offset="1" style="stop-color:#FAFD2D"/>
			</linearGradient>
			<path style="fill:url(#SVGID_00000107578329311177397880000017407503668916911499_);" d="M-67.2,658.1
				c43.5-30.5,96.8-91.9,100.6-88.3c3.8,3.4-8.6,14.8-29.9,36c-37.6,37.8-71.3,61.6-101.5,79.9c-4.4,2.7-8.9,5.3-13,7.6l0,0
				l-2.8-9.7C-97.4,676.7-81.8,668.3-67.2,658.1z M176.3,413.6c-0.1,0-0.2,0-0.4,0.1C176.1,413.6,176.2,413.6,176.3,413.6
				L176.3,413.6z M187.5,433.6c1.8-0.9,3.8-1.6,5.7-2.5C191.2,432,189.4,432.8,187.5,433.6z"/>
		</g>
		<path class="st5" d="M5.4,668.9c28-32.2,57.6-90.1,61.2-88.2c3.7,2-3.8,13.2-16.1,33.7C28.6,651.1,7,676.2-13.1,696.4
			c-2.7,2.8-5.5,5.4-8.1,7.9c-0.2,0.2-0.7,0.2-1-0.1l-3.4-5.7c-0.1-0.2-0.1-0.6,0.1-0.9C-14.3,689-4,679.6,5.4,668.9z"/>
		<g>
			<path class="st6" d="M131.4,491.2c2-1.7,6.1,1,9.2,4.4c1.2,1.4,2.1,3,2.7,4.4v-60.5h1.1v60.6c0.7-1.6,1.7-3.3,3.3-4.8
				c1.8-1.6,3.8-3,5.5-3.6c2-0.7,3.4-0.6,4.2,0.2c1.7,2-1,6.1-4.4,9.2c-2.3,2.1-5.2,3.1-7.1,3.4c2.1,0.7,3.6,2.8,3.6,5.2
				c0,1.1-0.4,2.2-1,3.1c1.7,0.4,3.1,1.1,3.1,2.2v6.8h-0.1c-0.4-0.1-0.9-0.1-1.2-0.2l-1-3.8l-0.5,3.7c-0.7-0.1-1.4-0.1-2.1-0.2
				l-0.5-3.4l-0.7,3.3c-0.5,0-1,0-1.4,0c-0.2,0-0.6,0-0.9,0l-0.5-3.3l-0.7,3.3c-0.7,0-1.5,0.1-2.3,0.2l-0.5-3.6l-0.9,3.8
				c-0.6,0.1-1.1,0.2-1.6,0.4h-0.1v-6.9c0-1,1.4-1.7,3.1-2.1c-0.6-0.9-1.1-2.1-1.1-3.2c0-2.1,1.2-3.9,3-4.9
				c-1.8-0.6-4.5-1.7-6.6-4.1c-1.6-1.8-3-3.8-3.6-5.5C130.5,493.5,130.6,492,131.4,491.2z M156.5,492.7c-0.2-0.2-0.5-0.4-1-0.4
				c-0.5,0-1.2,0.1-2,0.5c-1.6,0.6-3.4,1.8-5.2,3.3c-2.1,1.8-3.1,4.2-3.7,5.9c0.4,0.4,0.7,0.9,0.7,1.5l0,0c1.7-0.4,4.4-1.2,6.6-3.2
				C155.8,497.1,157.4,493.7,156.5,492.7z M139.8,509.8c0,1.1,0.5,2.2,1.2,3c1.1-0.1,2.3-0.2,3.6-0.2c0.7,0,1.5,0,2.2,0.1
				c0.7-0.7,1.2-1.7,1.2-2.8c0-2.2-1.7-3.9-3.8-4.1c-0.1,0-0.1,0-0.2,0C141.6,505.8,139.8,507.6,139.8,509.8z M132.3,494.9
				c0.6,1.6,1.8,3.4,3.3,5.2c2,2.2,4.7,3.3,6.3,3.8c0-0.1,0-0.2,0-0.4c0-0.6,0.4-1.2,0.9-1.5c-0.5-1.6-1.4-3.8-3-5.7
				c-2.6-2.8-5.4-4.5-6.9-4.5c-0.4,0-0.6,0.1-0.7,0.2C131.7,492.5,131.8,493.6,132.3,494.9z"/>
			
				<linearGradient id="SVGID_00000121261113002667511290000003936087354147232671_" gradientUnits="userSpaceOnUse" x1="-406.86" y1="-151.9013" x2="-395.6523" y2="-140.6937" gradientTransform="matrix(-1 0 0 -1 -257.3371 372)">
				<stop  offset="0" style="stop-color:#1EFF8B"/>
				<stop  offset="0.5029" style="stop-color:#FAFD2D"/>
				<stop  offset="1" style="stop-color:#1DCDE5"/>
			</linearGradient>
			<path style="fill:url(#SVGID_00000121261113002667511290000003936087354147232671_);" d="M143.2,512.5c0.4,0,0.6,0,0.6,0
				c0.2,0,0.4,0,0.6,0h0.1l0,0l0,0c0.9,0,1.6,0,2.2,0.1c0.6,0.1,1.2,0.1,1.6,0.2c1,0.2,1.7,0.6,2.1,0.9c0.1,0,0.1,0.1,0.2,0.1
				c0.4,0.4,0.6,0.6,0.6,1.1c0,0.1,0,0.1,0,0.1v1.5l0,0v5.4h-0.1c-0.4-0.1-0.9-0.1-1.2-0.2l-1-3.8l-0.5,3.7
				c-0.7-0.1-1.4-0.1-2.1-0.2l-0.5-3.4l-0.7,3.3c-0.5,0-1,0-1.4,0c-0.2,0-0.6,0-0.9,0l-0.5-3.3l-0.7,3.3c-0.7,0-1.5,0.1-2.3,0.2
				l-0.5-3.6l-0.9,3.8c-0.6,0.1-1.1,0.2-1.6,0.2h-0.1v-6.8C136.4,513.3,141.4,512.6,143.2,512.5z"/>
			
				<linearGradient id="SVGID_00000117652216651298040680000014629591425975411380_" gradientUnits="userSpaceOnUse" x1="-400.4852" y1="-147.1866" x2="-394.808" y2="-141.5096" gradientTransform="matrix(-1 0 0 -1 -257.3371 372)">
				<stop  offset="0" style="stop-color:#1EFF8B"/>
				<stop  offset="0.5029" style="stop-color:#FAFD2D"/>
				<stop  offset="1" style="stop-color:#1DCDE5"/>
			</linearGradient>
			<path style="fill:url(#SVGID_00000117652216651298040680000014629591425975411380_);" d="M143.2,512.5c0.4,0,0.6,0,0.6,0
				c0.2,0,0.4,0,0.6,0h0.1l0,0l0,0c0.7,0,1.4,0,1.8,0.1c-3.2,1.7-5.4,5-5.4,8.9c-0.5,0-1.1,0.1-1.6,0.1l-0.5-3.6l-0.9,3.8
				c-0.6,0.1-1.1,0.2-1.6,0.4h-0.1v-6.8C136.4,513.3,141.4,512.6,143.2,512.5z"/>
			<circle class="st9" cx="144.2" cy="542.5" r="21.4"/>
		</g>
		<g>
			<g>
				<path class="st10" d="M156.3,416.2c5.4-1.4,9.5-5.9,13.5-9.8c9.2-9.1,20.2-16.6,32-22c1.8-0.9,3.9-1.6,5.7-0.7
					c-7.1,16.2-20.9,28.5-34.2,40.2c-6,5.3-11.9,10.6-18,15.9c-2,1.7-3.9,3.4-6.4,4.2c-2.5,0.7-5.5,0.1-6.9-2.1
					c-1.6-2.6-0.2-6,1.2-8.7c2.6-5,5.2-10,7.7-15c0.7-1.4,2.1-3,3.4-2.2"/>
			</g>
			<g>
				<path class="st10" d="M87.9,459c3.6-1.7,6.5-4.7,8.2-8.2c0.9-1.6,1.5-3.4,2.6-4.8c1.2-1.4,3.2-2.3,4.9-1.6
					c2.1,1,2.5,3.8,2.2,6.1c-1.2,12.3-9.2,23-11.1,35.2c-0.4,2.8-0.5,5.7-1.5,8.2c-1,2.6-3,5.2-5.8,5.5c-3.6,0.6-6.9-2.3-8.5-5.5
					c-1.6-3.2-2.3-6.9-4.2-10c-0.7-1.4-1.7-2.5-2.3-3.9c-1.5-3.7,0-7.7,1.5-11.4c0.2-0.6,0.5-1.1,0.9-1.6c2.5-2.2,6.4,2.8,9.2,1.2
					c3-1.6,0.4-7.5,3.4-9"/>
			</g>
			<g>
				<path class="st10" d="M28.9,395.8c0.6,0.6,1.8,1.1,2.2,0.4c0.2-0.5,0-1,0.1-1.5c0.2-0.5,1-0.7,1.5-0.4c0.5,0.4,0.9,0.7,1.1,1.4
					c0.6,1.4,1,3,1,4.4c0,1.1-0.2,2.3,0,3.4c0.2,1.5,1.2,2.8,1.8,4.2s1,3.1,0.1,4.3c-2.3-0.7-4.2-2.3-6-3.9
					c-0.9-0.7-1.6-1.5-2.3-2.2c-1.1-1.1-2-2.5-2.8-3.7c-1.2-1.7-2.3-3.4-3.2-5.3c-0.7-2-1.1-4.1-0.6-6c1.5-0.2,2.8,1,3.8,2.1
					c1,1.2,1.8,2.6,3.2,3.1"/>
			</g>
			<g>
				<path class="st10" d="M212.7,366.3c0.5,1.8,0.9,3.8,1.4,5.7c0.1,0.2,0.1,0.6,0.4,0.7s0.5,0.1,0.9,0.1c0.9,0,1.8,0,2.6-0.4
					c1.4-0.6,2.1-1.8,2.5-3.2c0.4-1.4,0.6-2.8,1.1-4.1c0.9-2.2,2.6-4.1,4.2-5.9c2.7-3.3,4.7-7.4,5.5-11.6c0.1-0.4,0.1-1-0.1-1.2
					c-0.5-0.5-1.2,0.1-1.6,0.6c-1.6,2.1-2.7,4.5-4.2,6.8c-1.5,2.2-3.3,4.3-5.8,5.3c-0.9,0.4-1.7,0.6-2.6,1
					C214.7,361.3,213.6,363.8,212.7,366.3"/>
			</g>
		</g>
		<g>
			<path class="st6" d="M332.7,319.4c1.2-1.1,4.1,0.6,6,2.8c0.7,0.9,1.4,2,1.7,2.8v-39.5h0.7v39.6c0.5-1,1.1-2.2,2.2-3.1
				c1.2-1.1,2.5-1.8,3.6-2.3c1.2-0.5,2.2-0.5,2.7,0.1c1.1,1.2-0.6,4.1-2.8,6c-1.5,1.4-3.3,2-4.7,2.2c1.4,0.5,2.3,1.8,2.3,3.3
				c0,0.7-0.2,1.5-0.6,2.1c1.1,0.2,2,0.7,2,1.5v4.4c0,0,0,0-0.1,0c-0.2,0-0.5-0.1-0.9-0.1l-0.6-2.6l-0.2,2.3c-0.5,0-0.9-0.1-1.4-0.1
				l-0.4-2.2l-0.5,2.2c-0.2,0-0.6,0-0.9,0c-0.2,0-0.4,0-0.6,0l-0.4-2.2l-0.5,2.2c-0.5,0-1,0.1-1.5,0.1l-0.4-2.3l-0.6,2.5
				c-0.4,0-0.7,0.1-1.1,0.2c0,0,0,0-0.1,0v-4.4c0-0.6,0.9-1.1,2.1-1.4c-0.5-0.6-0.7-1.4-0.7-2.1c0-1.4,0.7-2.6,2-3.2
				c-1.2-0.4-3-1.1-4.3-2.6c-1.1-1.2-1.8-2.5-2.3-3.6C332.1,320.9,332.1,319.9,332.7,319.4z M349.1,320.4c-0.1-0.1-0.4-0.2-0.6-0.2
				c-0.4,0-0.7,0.1-1.2,0.2c-1.1,0.4-2.2,1.2-3.3,2.2c-1.4,1.2-2.1,2.8-2.3,3.8c0.2,0.2,0.5,0.5,0.5,1l0,0c1.1-0.2,3-0.7,4.3-2.1
				C348.6,323.3,349.7,321,349.1,320.4z M338.3,331.5c0,0.7,0.4,1.5,0.9,2c0.7-0.1,1.5-0.1,2.3-0.1c0.5,0,1,0,1.5,0.1
				c0.5-0.5,0.7-1.1,0.7-1.8c0-1.5-1.1-2.6-2.6-2.7H341C339.4,328.9,338.3,330.1,338.3,331.5z M333.2,321.9c0.4,1.1,1.2,2.2,2.2,3.3
				c1.4,1.5,3.1,2.1,4.2,2.5c0-0.1,0-0.1,0-0.2c0-0.4,0.2-0.7,0.5-1c-0.2-1.1-0.9-2.5-2-3.7c-1.7-1.8-3.6-3-4.4-3
				c-0.2,0-0.4,0-0.5,0.1C332.9,320.3,333,320.9,333.2,321.9z"/>
			
				<linearGradient id="SVGID_00000175311317962183844300000018217487645284181416_" gradientUnits="userSpaceOnUse" x1="-601.6796" y1="31.0491" x2="-594.3614" y2="38.3673" gradientTransform="matrix(-1 0 0 -1 -257.3371 372)">
				<stop  offset="0" style="stop-color:#1EFF8B"/>
				<stop  offset="0.5029" style="stop-color:#FAFD2D"/>
				<stop  offset="1" style="stop-color:#1DCDE5"/>
			</linearGradient>
			<path style="fill:url(#SVGID_00000175311317962183844300000018217487645284181416_);" d="M340.4,333.3c0.2,0,0.4,0,0.4,0
				c0.1,0,0.2,0,0.4,0c0,0,0,0,0.1,0l0,0l0,0c0.5,0,1,0,1.5,0.1c0.4,0,0.7,0.1,1.1,0.1c0.6,0.1,1.1,0.4,1.4,0.6l0.1,0.1
				c0.2,0.2,0.4,0.5,0.4,0.7v0.1v1l0,0v3.6c0,0,0,0-0.1,0c-0.2,0-0.5-0.1-0.9-0.1l-0.6-2.6l-0.2,2.3c-0.5,0-0.9-0.1-1.4-0.1
				l-0.4-2.2l-0.5,2.2c-0.2,0-0.6,0-0.9,0c-0.2,0-0.4,0-0.6,0l-0.4-2.2l-0.5,2.2c-0.5,0-1,0.1-1.5,0.1l-0.4-2.3l-0.6,2.5
				c-0.4,0-0.7,0.1-1.1,0.2c0,0,0,0-0.1,0v-4.4C335.9,333.8,339.3,333.3,340.4,333.3z"/>
			
				<linearGradient id="SVGID_00000061462940087120324860000013073563096649824424_" gradientUnits="userSpaceOnUse" x1="-597.6594" y1="34.27" x2="-593.9525" y2="37.9769" gradientTransform="matrix(-1 0 0 -1 -257.3371 372)">
				<stop  offset="0" style="stop-color:#1EFF8B"/>
				<stop  offset="0.5029" style="stop-color:#FAFD2D"/>
				<stop  offset="1" style="stop-color:#1DCDE5"/>
			</linearGradient>
			<path style="fill:url(#SVGID_00000061462940087120324860000013073563096649824424_);" d="M340.4,333.3c0.2,0,0.4,0,0.4,0
				c0.1,0,0.2,0,0.4,0c0,0,0,0,0.1,0l0,0l0,0c0.5,0,0.9,0,1.2,0c-2.1,1.1-3.4,3.2-3.6,5.8c-0.4,0-0.7,0-1,0.1l-0.4-2.3l-0.6,2.5
				c-0.4,0-0.7,0.1-1.1,0.2c0,0,0,0-0.1,0v-4.4C335.9,333.8,339.3,333.3,340.4,333.3z"/>
			<ellipse class="st13" cx="341.1" cy="352.8" rx="13.9" ry="13.9"/>
		</g>
		
			<linearGradient id="SVGID_00000132050745133149351390000000364696856081397664_" gradientUnits="userSpaceOnUse" x1="-447.5322" y1="-97.9759" x2="-256.3786" y2="93.1777" gradientTransform="matrix(-1 0 0 -1 -257.3371 372)">
			<stop  offset="0" style="stop-color:#00A862"/>
			<stop  offset="0.4903" style="stop-color:#1EFF8B"/>
			<stop  offset="1" style="stop-color:#FAFD2D"/>
		</linearGradient>
		<path style="fill:url(#SVGID_00000132050745133149351390000000364696856081397664_);" d="M91,468.6c-1.5,2.2-2.8,4.4-4.3,6.6
			c-0.6,0.9-2,0.7-2.3-0.2c-41.6-113.4-24-231.1-21.5-245.6c0.1-0.9-0.5-1.5-1.4-1.5h-2.3c-0.6,0-1.2,0.5-1.4,1.1
			c-5.9,38.9-7.5,81.5-6.6,121.9c0,1.2-1.6,1.8-2.3,0.9c-15.4-20.8-19.2-34.9-20-39.1c-0.1-0.7-0.9-1.2-1.6-1l0,0
			c-0.6,0.1-1.1,0.7-1,1.5c3.7,24.7,18.1,46,25.2,55.5c0.1,0.2,0.2,0.5,0.2,0.7c2.2,60.5,9,113.5,12.5,138.1c0,0.4,0,0.7-0.2,1
			c-84.5,116.3-168.6,164.4-178.3,169.7c-0.5,0.2-0.9,1-0.6,1.5l0.9,3c0.2,0.7,1.1,1.1,1.8,0.9c15.7-6.9,30.7-14.9,45.1-25
			c43.5-30.5,96.8-91.9,100.6-88.3c3.8,3.4-8.6,14.8-29.9,36c-37.6,37.8-71.3,61.6-101.5,79.9c-4.2,2.6-8.2,4.9-12.1,7
			c-0.5,0.2-0.7,1-0.6,1.5l0.4,1.2l3.2,11.1l1.7,5.8l8.2,28.4c0.2,0.9,1.2,1.2,2,0.7c70.3-40.3,144.9-140.3,219.4-246.3
			c11.4-16.4,22.5-33.3,32.8-50.3c0.1-0.2,0.5-0.5,0.7-0.6c0.9-0.2,1.6-0.5,2.5-0.7c0.1,0,0.2-0.1,0.4-0.1c1-0.2,1.8-0.6,2.8-0.9
			c0.1,0,0.2-0.1,0.4-0.1c0.9-0.2,1.7-0.6,2.7-0.9c0.1,0,0.2-0.1,0.4-0.1c0.9-0.2,1.7-0.6,2.6-0.9c0.9-0.2,1.7-0.6,2.6-1
			c0.4-0.1,0.9-0.4,1.2-0.5c0.6-0.2,1.2-0.5,1.8-0.6c0.4-0.1,0.9-0.4,1.2-0.5c1.7-0.6,3.4-1.4,5.2-2c1-0.4,1.8-0.7,2.8-1.1
			c0.9-0.4,1.7-0.7,2.6-1.1c0.1,0,0.1-0.1,0.2-0.1c1.8-0.9,3.8-1.6,5.7-2.5c1-0.4,1.8-0.9,2.8-1.2c0.9-0.4,1.8-0.9,2.7-1.2l0,0
			c0.9-0.4,1.8-0.9,2.7-1.4c1.2-0.6,2.3-1.1,3.6-1.7c1.5-0.7,3-1.5,4.4-2.3c0.9-0.5,1.7-1,2.6-1.4c0.9-0.5,1.7-1,2.6-1.4
			c0.7-0.5,1.6-0.9,2.3-1.4c0.1-0.1,0.4-0.1,0.5-0.2c0.7-0.4,1.4-0.9,2.1-1.2c0.1-0.1,0.4-0.2,0.5-0.2c0.6-0.4,1.2-0.7,2-1.1
			c0.9-0.5,1.7-1.1,2.6-1.6c0.9-0.5,1.6-1,2.5-1.5c0,0,0.1,0,0.1-0.1c0.7-0.5,1.5-1,2.2-1.5c0.7-0.5,1.6-1,2.3-1.5
			c0.7-0.5,1.5-1,2.3-1.5c0.7-0.5,1.6-1.1,2.3-1.6c0.6-0.4,1.1-0.7,1.6-1.1c1-0.6,2-1.4,2.8-2c0.7-0.5,1.5-1.1,2.2-1.6
			c0,0,0.1,0,0.1-0.1c0.7-0.5,1.4-1,2.1-1.5c0.6-0.4,1.2-0.9,1.7-1.2c0.9-0.6,1.7-1.2,2.6-2c0.6-0.5,1.4-1,2-1.5
			c0.7-0.6,1.6-1.2,2.3-1.8c0.6-0.5,1.1-0.9,1.7-1.4c0.7-0.6,1.5-1.2,2.3-1.8c0.4-0.4,0.9-0.7,1.2-1.1c0.2-0.2,0.5-0.4,0.7-0.6
			c0.5-0.5,1.1-0.9,1.6-1.4c0.1-0.1,0.2-0.2,0.4-0.4c0.5-0.5,1.1-0.9,1.6-1.4c0.9-0.7,1.7-1.5,2.6-2.2c0.6-0.5,1.1-1,1.7-1.5
			c0.6-0.5,1.1-1,1.6-1.5c1.4-1.2,2.6-2.3,3.9-3.6c0.5-0.5,1-0.9,1.5-1.4c0.2-0.2,0.4-0.4,0.6-0.6c0.4-0.4,0.9-0.7,1.2-1.2
			c0.1-0.1,0.4-0.4,0.5-0.5c0.5-0.5,1-1,1.5-1.5c2.5-2.3,4.8-4.8,7.1-7.1c0.5-0.5,0.9-0.9,1.4-1.4c5.2-5.5,10-10.9,14.4-16.2
			c0.2-0.4,0.5-0.6,0.7-1c0.5-0.6,1.1-1.2,1.6-2c0.5-0.6,1-1.2,1.5-1.8c0.2-0.4,0.5-0.6,0.7-1c0.2-0.4,0.5-0.6,0.7-1
			c0.2-0.4,0.5-0.6,0.7-1c0.5-0.6,1-1.2,1.5-1.8c1.7-2.2,3.3-4.3,4.8-6.4c-17.2,19.6-36.8,39.7-52.5,50.2
			c-31.7,20.9-76.5,38.6-89.5,43.7c-1.2,0.5-2.2-0.9-1.6-2c1.5-2.3,3.7-5.8,6.5-10.3c-0.1,0-0.2,0-0.4,0.1c-0.1,0-0.2,0.1-0.4,0.1
			c46.4-81.4,76.7-155.9,77.8-158.8c0,0,0-0.1,0.1-0.1c9-17.8,17.7-38.6,24.5-62.3c22.6-78.6,13.3-147.9,3.6-189.7
			c-0.1-0.7-0.9-1.1-1.6-1L269.9,8c4.7,36.6,10.7,85.6-22.4,161.7c-9.7,22.1-19.2,41.8-29.4,57.8"/>
		<path class="st15" d="M-28.3,694l27.8,45.7C47.1,694.9,85.7,602.4,123.2,505c5.8-15,11.1-30.5,15.7-45.7
			c97.3-57.8,113-161.5,113-161.5l-3.4,0.5c-7.5,31-19.9,55.7-33.8,75c-3.2-8.5-8.2-30.4-2.5-76l-1.4-0.4c0,0-9,23.5-4.2,86.7
			c-22,26.7-46.1,41.4-59.8,48.3c20.3-73.4,28.9-138.1,28.9-138.1s7.6-82.5-1.5-168.2c-9.1-85.7-21.3-86.8-21.3-86.8h-6.8
			c11.3,37.9,7.4,88.7,6.8,148.7c-0.2,26.8-2.8,51.3-6.3,73l-0.1,0.7c-2.3,10.2-4.2,20.5-5.5,31c-3.3,26.4-14.5,93.2-49.7,198.7
			c-0.9,2.7-1.8,5.3-2.7,7.9c-60.7-85-68.2-188.1-68.2-188.1l-3.9,1c3.3,32.5,11.2,67.3,20.5,99.5c-22-16.7-26.8-29.3-26.8-29.3
			l-1.8,1c8,19.1,24.2,33,31.8,38.9c14.1,46.6,30.5,86.7,38.2,104.8C32.7,640.2-28.3,694-28.3,694z"/>
		<path class="st16" d="M167.7,304.7c-7.5,43.3-22.6,105.4-52.5,189.5c-0.2,0.6-1.1,0.6-1.2-0.1c-0.4-1.4-1.1-2.2-2.2-2.6
			c-6.4-2-29.6,77.3-56.7,123.5c-19.8,33.7-44.8,66-75.4,91.1c-0.1,0.1-0.2,0.2-0.4,0.4l4.8,7.9l2.5,4.1L-1,739
			c0.2,0.4,0.7,0.5,1,0.1c47.3-45,85.8-137.2,123.1-234.1c5.8-15,10.9-30.3,15.7-45.5c0-0.1,0.1-0.2,0.2-0.4
			c47.7-28.4,75.8-67.9,92-100.6c0.4-0.7-0.7-1.4-1.2-0.6c-7.3,13-15,25-22.3,32.7c-21.5,23.4-55,47-62.7,52.3
			c-0.5,0.4-1.2-0.1-1-0.7c0.6-2,1.8-5.5,3.4-10.3c-0.1,0.1-0.4,0.2-0.5,0.2c20.4-73.5,29-138.2,29-138.2
			c11.3-121.6-1.8-207.5-12.1-242c-3.9-13.3-10.7-13-10.7-13h-2l11.7,72.3c2.7,37.3,5.4,74.3,8.1,111.5l-0.9,56.7
			C169.9,287.8,169.2,296.3,167.7,304.7z"/>
		<path class="st17" d="M292.4,352.7c3.6-4.8,7.6-9.1,11.6-13.6c6.4-7.6,12.4-15.5,17.3-24.1c1.4-2.6,2.7-5.3,4.1-7.9
			c0.1-0.2,0.2-0.5,0.5-0.6l0,0c0-0.1,0-0.4,0-0.5c-0.4-0.9,1.1-2-0.1-2.6c-1.1-0.5-2.2,0-3.2,0.6c-4.8,3-9.1,6.4-13.3,10.2
			c-5.7,5.2-10.6,11.1-15.1,17.2c-1.4,1.8-3.1,3.4-5,4.7c-0.5,0.2-1.1,0.7-1.6,0.7c-3.4-0.6-4.2,2.1-5.2,4.4
			c-1.1,2.8-2.3,5.7-3.6,8.5c-0.1,0.4-0.4,0.6-0.7,0.7c-0.4,3-2.2,5.4-2.7,8.4c-0.4,2-0.5,4.1,1.2,5.7c1.7,1.5,3.6,0.9,5.4,0.2
			c1.8-2.1,3.7-4.1,5.5-6C289,356.5,290.6,354.4,292.4,352.7z"/>
		<path class="st17" d="M212.4,365.4c0.2,2.6,1.2,4.9,2,7.6c6.3-8.7,11.7-17.6,16.2-26.9c-2.2,0.6-2.8,2.7-3.8,4.4
			c-2.5,4.2-5.2,8-10.1,9.3c-1.4,0.4-2.2,1.7-2.8,3C213.3,363.8,213.1,364.8,212.4,365.4z"/>
		<path class="st17" d="M198.7,398c2.8-4.1,5.7-8.2,7.7-12.8c0.2-0.6,1.1-1.5-0.2-2c-3.9-0.2-6.9,2-10.2,3.6c-2.1,1-4.1,2.1-6.1,3.2
			c-4.1,3.1-8.5,5.8-12.5,9c-4.9,3.9-9.2,8.7-14,12.8c-3,2.5-5.9,4.9-10.2,3.9c-1-0.2-1.6,0.7-2.3,1.2c-2.7,5.2-5.4,10.5-8.1,15.6
			c-0.6,1.2-1.2,2.6-1.7,3.8c-0.7,2.3-0.9,4.7,1.1,6.4c2,1.7,4.3,1.7,6.8,0.9c2-0.7,3.7-2,5.2-3.4c12.4-11.2,25.5-21.6,37-33.8
			C193.9,404.1,196.2,401,198.7,398z"/>
		<path class="st17" d="M71.7,472.4c-1.1,4.4-0.4,8.4,2.3,12.1c1.6,2.1,2.1,4.8,3,7.1c1,2.6,2.2,5,4.7,6.6c3.3,2.3,7,1.7,9.3-1.5
			c1.6-2.2,2.2-4.8,2.5-7.4c0.5-6.5,2.7-12.7,5.2-18.7c2.3-5.5,4.7-10.9,5.9-16.8c0.5-2.3,0.5-4.7,0.4-7.1c-0.2-0.9-1.5-1.4-1.1-2.6
			c-3.9-0.4-6.1,0.9-7.6,4.4c-1.8,4.2-4.3,7.7-8.5,10c-1.7,0.9-2.8,2.5-2.6,4.5c0.1,0.9-0.2,1.7-0.4,2.6c-0.2,2-1.2,2.8-3.2,2.5
			c-1.5,0.4-2.5-0.6-3.7-1.1c-2.7-1.1-3.7-0.7-4.8,2C72.5,470.2,72,471.3,71.7,472.4z"/>
		<path class="st17" d="M174.1,306c-0.6,2.8-1.5,5.5-1.7,8.5c1.1-0.1,1.7-1.1,2.3-1.8c3.8-4.2,6.6-9,9.5-13.8
			c4.4-7.6,8.7-15.2,13.2-22.9c5.9-10.1,13.9-18.3,21.2-27.4c6.1-7.7,11.8-15.7,16.5-24.5c0.6-1.1,1-2.2,1.4-3.3
			c0.2-0.7,0.5-1.5-0.2-2.1c-0.7-0.5-1.5-0.1-2.1,0.2c-2,1.1-3.2,2.8-4.5,4.5c-1.4,1.6-2.5,3.3-4.1,4.7c-0.7,0.6-1.5,1.6-2.5,0.9
			c-0.9-0.6-0.5-1.6-0.2-2.5c0.4-1.7,0.9-3.4,1.8-4.9c1.6-2.6,3.1-5.3,3.9-8.2c3.4-10.9,9.1-20.9,14.8-30.7c1.7-3,3.3-5.9,4.3-9.1
			c0.2-0.7,1.5-2.2-0.6-2.6l0,0c-0.2,0.1-0.4,0.4-0.6,0.5c-3.9,5.2-7.9,10.3-11.7,15.7c-7.1,10.1-14,20.3-20.4,30.9
			c-3.3,5.3-6,10.9-9,16.5c-4.1,7.4-8.9,14.3-12.4,21.9c-6.1,13-10.9,26.6-15.2,40.2C176.3,299.9,175.7,303.2,174.1,306z"/>
		<path class="st17" d="M271.4,85.3c1-4.5,1.2-9.1,1.6-13.8c1.4-18.7,0.4-37.4-2-56c-0.2-1.7-0.5-3.6-0.7-5.3
			c-1.1,0.1-1.2,1-1.4,1.8c-1.7,5.5-2.5,11.1-3,16.8c-0.4,3.7-0.6,7.4-0.4,11.1c0.4,5.3,1,10.5,0.9,15.7c0,2.3-0.4,4.4-2.6,5.8
			c-1.1,0.7-0.6,1.8-0.2,2.8c2.5,6.6,4.4,13.4,7.5,19.8C271.3,84.6,271.4,85.1,271.4,85.3z"/>
		<path class="st17" d="M264.2,121.1c1.7-2.5,2.7-5.2,2.7-8.2c0-1.7,0.4-3.6,1-5.2c2.2-5.4,2.2-11.1,2.8-16.6
			c-1.4,2.1-1.4,4.7-2.1,7c-0.9,3-1.7,5.7-3.9,8.1c-2.2,2.5-2.3,5.8-1.7,9.1C263.4,117.2,263.9,119.1,264.2,121.1z"/>
		<path id="icon:2" class="st18" d="M127.5,533.3l0.9-0.5l4.2,2.3v-0.7l0.9-0.5l0.9,0.5v1.7l3.4,1.8v-1.7l0.9-0.5l0.9,0.5v2.6l1.7,1
			l2.3-1.2v-2l-2.3-1.4v-0.9l0.9-0.5l1.6,0.9V531l-1.5-0.9v-0.9l0.9-0.5l0.7,0.4v-4.5l0.9-0.5l0.9,0.5v4.5l0.7-0.4l0.9,0.5v0.9
			l-1.5,0.9v3.8l1.6-0.9l0.9,0.5v0.9l-2.3,1.4v2l2.3,1.2l1.7-1v-2.6l0.9-0.5l0.9,0.5v1.7l3.4-1.8v-1.7l0.9-0.5l0.9,0.5v0.7l4.2-2.3
			l0.9,0.5v0.9l-4.2,2.3l0.7,0.4v0.9l-0.9,0.5l-1.6-0.9l-3.4,1.8l1.6,0.9v0.9l-0.9,0.5l-2.5-1.4l-1.7,1v2.6l1.7,1l2.5-1.4l0.9,0.5
			v0.9l-1.6,0.9l3.4,1.8l1.6-0.9l0.9,0.5v0.9l-0.7,0.4l4.2,2.3v0.9l-0.9,0.5l-4.2-2.3v0.7l-0.9,0.5l-0.9-0.5v-1.7l-3.4-1.8v1.7
			l-0.9,0.5l-0.9-0.5v-2.6l-1.7-1l-2.3,1.2v2l1.7,1.6v0.9l-0.9,0.5l-1.6-0.9v3.8l1.5,0.9v0.9l-0.9,0.5l-0.7-0.4v4.5l-0.9,0.5
			l-0.9-0.5v-4.6l-0.7,0.4l-0.9-0.5v-0.9l1.6-0.9v-3.8l-1.6,0.9l-0.9-0.5v-0.9l2.3-1.4v-2l-2.3-1.2l-1.7,1v2.6l-0.9,0.5l-0.9-0.5
			v-1.7l-3.4,1.8v1.7l-0.9,0.5l-0.9-0.5v-0.7l-4.2,2.3l-0.9-0.5v-0.9l4.2-2.3l-0.7-0.4v-0.9l0.9-0.5l1.6,0.9l3.4-1.8l-1.6-0.9V544
			l0.9-0.5l2.5,1.4l1.7-1v-2.6l-1.7-1l-2.5,1.2l-0.9-0.5v-0.9l1.6-0.9l-3.4-1.8l-1.6,0.9l-0.9-0.5V537l0.7-0.4l-4.2-2.3v-1
			L127.5,533.3L127.5,533.3z"/>
		<path id="icon:2_00000072988564804226275460000017709854838429802883_" class="st18" d="M330.3,347.2l0.5-0.2l2.7,1.5V348l0.5-0.2
			l0.5,0.2v1.1l2.2,1.2v-1.1l0.5-0.2l0.5,0.2v1.7l1.1,0.6l1.5-0.9v-1.2l-1.5-0.9V348l0.5-0.2l1,0.5v-2.5l-1-0.5v-0.6l0.5-0.2
			l0.5,0.2v-2.8l0.5-0.2l0.5,0.2v3l0.5-0.2l0.5,0.2v0.6l-1,0.5v2.5l1-0.6l0.7,0.2v0.6l-1.5,0.9v1.2l1.5,0.9l1.1-0.6v-1.6l0.5-0.2
			l0.5,0.2v1.1l2.2-1.2v-1.1l0.5-0.2l0.5,0.2v0.5l2.7-1.5l0.5,0.2v0.6l-2.7,1.5l0.5,0.2v0.6l-0.5,0.2l-1-0.5l-2.2,1.2l1.1,0.4v0.6
			l-0.5,0.2l-1.5-0.9l-1.1,0.6v1.6l1.1,0.6l1.5-0.9l0.5,0.2v0.6l-1,0.5l2.2,1.2l1-0.5l0.5,0.2v0.6l-0.5,0.2l2.7,1.5v0.6l-0.5,0.2
			l-2.7-1.5v0.5l-0.5,0.2l-0.5-0.2v-1.1l-2.2-1.2v1.1l-0.5,0.2l-0.5-0.2v-1.7l-1.1-0.6l-1.5,0.9v1.2l1.5,0.9v0.6l-0.5,0.2l-1-0.5
			v2.5l1,0.5v0.6l-0.5,0.2l-0.5-0.2v3l-0.5,0.2l-0.5-0.2v-3l-0.5,0.2l-0.5-0.2v-0.6l1-0.5v-2.5l-1,0.6l-0.5-0.2v-0.6l1.5-0.9v-1.2
			l-1.5-0.9l-1.1,0.6v1.6l-0.5,0.2L337,357v-1.1l-2.2,1.2v1.1l-0.5,0.2l-0.5-0.2v-0.5l-2.7,1.5l-0.5-0.2v-0.6l2.7-1.5l-0.5-0.2V356
			l0.5-0.2l1,0.5l2.2-1.2l-1-0.5v-0.6l0.5-0.2l1.5,0.9l1.1-0.6v-1.6l-1.1-0.6l-1.5,0.9l-0.5-0.2v-0.6l1-0.5l-2.2-1.2l-1.2,0.5
			l-0.5-0.2v-0.6l0.5-0.2l-2.7-1.5L330.3,347.2L330.3,347.2z"/>
	</g>
</g>
</svg>
