<?xml version="1.0" encoding="utf-8"?>
<!-- Generator: Adobe Illustrator 26.4.1, SVG Export Plug-In . SVG Version: 6.00 Build 0)  -->
<svg version="1.1" xmlns="http://www.w3.org/2000/svg" xmlns:xlink="http://www.w3.org/1999/xlink" x="0px" y="0px"
	 viewBox="0 0 360.1 743" style="enable-background:new 0 0 360.1 743;" xml:space="preserve">
<style type="text/css">
	.st0{display:none;}
	.st1{fill:url(#SVGID_1_);}
	.st2{fill:url(#SVGID_00000072983319189228868280000013654206201169863600_);}
	.st3{fill:url(#SVGID_00000000903265704766290210000006840216189476959630_);}
	.st4{fill:url(#SVGID_00000036949203303973195220000009202280765427650952_);}
	.st5{fill:#43AC92;}
	.st6{fill:#FEF6D2;}
	.st7{fill:url(#SVGID_00000168079292500551286460000017108717896932395682_);}
	.st8{fill:url(#SVGID_00000018930359225746791560000006946672071439544730_);}
	.st9{fill:none;stroke:#FEF6D2;stroke-width:2;stroke-miterlimit:10;}
	.st10{fill:#FDF6D2;}
	.st11{fill:url(#SVGID_00000120537053393697391310000005955460391103518632_);}
	.st12{fill:url(#SVGID_00000147214318758322922840000005653301828717493413_);}
	.st13{fill:none;stroke:#FEF6D2;stroke-width:1.9999;stroke-miterlimit:9.9996;}
	.st14{fill:url(#SVGID_00000112604026868110996150000009981639506367045269_);}
	.st15{fill:#037F89;}
	.st16{fill:#1DCDE5;}
	.st17{fill:#FBF4D1;}
	.st18{opacity:0.9;fill-rule:evenodd;clip-rule:evenodd;fill:#FFFFFF;enable-background:new    ;}
</style>
<g id="Layer_1" class="st0">
	
		<image style="display:inline;overflow:visible;" width="334" height="733" xlink:href="background-01-l.png"  transform="matrix(1 0 0 1 0 5)">
	</image>
</g>
<g id="Layer_2">
	<g>
		
			<linearGradient id="SVGID_1_" gradientUnits="userSpaceOnUse" x1="-335.6367" y1="-105.4383" x2="-141.2178" y2="88.9805" gradientTransform="matrix(1 0 0 -1 497.2342 372)">
			<stop  offset="0" style="stop-color:#00A862"/>
			<stop  offset="0.4903" style="stop-color:#1EFF8B"/>
			<stop  offset="1" style="stop-color:#FAFD2D"/>
		</linearGradient>
		<path class="st1" d="M70.8,38.8c7.4,63.2,61.6,190.7,91.6,257.6c9.5,21.3,16.5,43.5,21.5,66.3c25.7,116.8,279.8,350.7,279.8,350.7
			l-8.2,28.4c-17,2.3-102.3-72.9-102.3-72.9L201.2,446l-15-23.6l-16.1-29.1l-19.7-39L132.1,318l-20.9-47.6c0,0-17.7-39.4-36.9-101.8
			S76.9,3.9,76.9,3.9"/>
		<g>
			
				<linearGradient id="SVGID_00000174562194396603127650000001022532641723772351_" gradientUnits="userSpaceOnUse" x1="-412.3087" y1="-1.5874" x2="-370.495" y2="40.2262" gradientTransform="matrix(1 0 0 -1 497.2342 372)">
				<stop  offset="0" style="stop-color:#00A862"/>
				<stop  offset="0.4903" style="stop-color:#1EFF8B"/>
				<stop  offset="1" style="stop-color:#FAFD2D"/>
			</linearGradient>
			<path style="fill:url(#SVGID_00000174562194396603127650000001022532641723772351_);" d="M96.6,373.6
				c-14.3-78.2-32.2-104-32.2-104l-1.5,0.7C84,324,84.9,352,83.8,363.4C61.2,344,38.7,318,20,282.6l-4.2,0.5c0,0,8.9,21,29,48.6l0,0
				c17.5,20,37,40.3,52.8,50.7c37.5,24.7,93.3,45,93.3,45s-3.3-5.2-8.7-13.6C163.5,409.2,130.6,398.6,96.6,373.6z"/>
			
				<linearGradient id="SVGID_00000162311588453391368400000006813094227227040402_" gradientUnits="userSpaceOnUse" x1="-108.3851" y1="-267.7614" x2="-88.6694" y2="-248.0454" gradientTransform="matrix(1 0 0 -1 497.2342 372)">
				<stop  offset="0" style="stop-color:#00A862"/>
				<stop  offset="0.4903" style="stop-color:#1EFF8B"/>
				<stop  offset="1" style="stop-color:#FAFD2D"/>
			</linearGradient>
			<path style="fill:url(#SVGID_00000162311588453391368400000006813094227227040402_);" d="M425.5,658
				c-43.5-30.5-96.8-91.7-100.6-88.3c-3.7,3.4,8.7,14.8,29.9,36c37.6,37.8,71.3,61.6,101.5,79.9c4.5,2.8,8.9,5.3,13,7.6l2.8-9.7
				C455.9,676.7,440.3,668.3,425.5,658z"/>
			
				<linearGradient id="SVGID_00000096774694409599362910000008394670951277754252_" gradientUnits="userSpaceOnUse" x1="-190.4084" y1="171.5027" x2="-163.3129" y2="198.598" gradientTransform="matrix(1 0 0 -1 497.2342 744)">
				<stop  offset="0" style="stop-color:#00A862"/>
				<stop  offset="0.4903" style="stop-color:#1EFF8B"/>
				<stop  offset="1" style="stop-color:#FAFD2D"/>
			</linearGradient>
			<path style="fill:url(#SVGID_00000096774694409599362910000008394670951277754252_);" d="M472.3,683.7l-2.8,9.7l0,0
				c-4.2-2.3-8.6-4.9-13-7.6c-30.1-18.3-63.8-42.2-101.5-79.9c-21.3-21.3-33.7-32.6-29.9-36c3.8-3.6,57.1,57.8,100.6,88.3
				C440.3,668.3,455.9,676.7,472.3,683.7z M182.2,413.6c0.1,0,0.2,0,0.4,0.1C182.4,413.6,182.3,413.6,182.2,413.6L182.2,413.6z
				 M165.3,431.1c1.8,0.9,3.8,1.6,5.7,2.5C169.1,432.8,167.3,432,165.3,431.1z"/>
		</g>
		<path class="st5" d="M384,697.6c0.2,0.2,0.2,0.6,0.1,0.9l-3.4,5.7c-0.2,0.4-0.7,0.4-1,0.1c-2.6-2.5-5.4-5-8.1-7.9
			c-20-20.2-41.7-45.3-63.6-81.9c-12.3-20.5-19.8-31.7-16.1-33.7c3.7-2,33.2,56,61.2,88.2C362.4,679.6,372.8,689,384,697.6z"/>
		<g>
			<path class="st6" d="M227.2,495.4c-0.6,1.7-2,3.7-3.6,5.5c-2.1,2.3-4.8,3.4-6.6,4.1c1.7,1,3,2.8,3,4.9c0,1.1-0.5,2.3-1.1,3.2
				c1.7,0.4,3.1,1.1,3.1,2.1v6.9h-0.1c-0.5-0.1-1-0.2-1.6-0.4l-0.9-3.8l-0.5,3.6c-0.9-0.1-1.6-0.2-2.3-0.2l-0.7-3.3l-0.5,3.3
				c-0.2,0-0.6,0-0.9,0c-0.4,0-0.9,0-1.4,0l-0.7-3.3l-0.5,3.4c-0.7,0.1-1.4,0.1-2.1,0.2l-0.5-3.7l-1,3.8c-0.4,0.1-0.9,0.1-1.2,0.2
				h-0.1v-6.8c0-1.1,1.4-1.8,3.1-2.2c-0.6-0.9-1-2-1-3.1c0-2.3,1.5-4.4,3.6-5.2c-2-0.4-4.8-1.4-7.1-3.4c-3.4-3.1-6.1-7.3-4.4-9.2
				c0.7-0.9,2.2-1,4.2-0.2c1.7,0.6,3.7,2,5.5,3.6c1.6,1.5,2.6,3.2,3.3,4.8v-60.6h1.1v60.5c0.6-1.5,1.5-3.1,2.7-4.4
				c3.1-3.4,7.3-6.1,9.2-4.4C227.9,492,228,493.5,227.2,495.4z M206.4,500.3c2.2,2,4.9,2.8,6.6,3.2l0,0c0-0.6,0.4-1.1,0.7-1.5
				c-0.6-1.7-1.6-4.1-3.7-5.9c-1.7-1.5-3.6-2.7-5.2-3.3c-0.7-0.4-1.5-0.5-2-0.5c-0.5,0-0.7,0.1-1,0.4
				C201.1,493.7,202.7,497.1,206.4,500.3z M214.5,505.8c-0.1,0-0.1,0-0.2,0c-2.1,0.1-3.8,1.8-3.8,4.1c0,1.1,0.5,2.1,1.2,2.8
				c0.7-0.1,1.5-0.1,2.2-0.1c1.2,0,2.5,0.1,3.6,0.2c0.7-0.7,1.2-1.8,1.2-3C218.7,507.6,216.8,505.8,214.5,505.8z M226.3,492.1
				c-0.1-0.1-0.4-0.2-0.7-0.2c-1.5,0-4.3,1.7-6.9,4.5c-1.6,1.8-2.5,4.1-3,5.7c0.5,0.2,0.9,0.9,0.9,1.5c0,0.1,0,0.2,0,0.4
				c1.6-0.5,4.3-1.6,6.3-3.8c1.5-1.7,2.7-3.6,3.3-5.2C226.7,493.6,226.8,492.5,226.3,492.1z"/>
			
				<linearGradient id="SVGID_00000008838317720780604730000014022568613392021922_" gradientUnits="userSpaceOnUse" x1="-288.2721" y1="-151.9013" x2="-277.0643" y2="-140.6937" gradientTransform="matrix(1 0 0 -1 497.2342 372)">
				<stop  offset="0" style="stop-color:#1EFF8B"/>
				<stop  offset="0.5029" style="stop-color:#FAFD2D"/>
				<stop  offset="1" style="stop-color:#1DCDE5"/>
			</linearGradient>
			<path style="fill:url(#SVGID_00000008838317720780604730000014022568613392021922_);" d="M222.1,515.2v6.8H222
				c-0.5,0-1-0.1-1.6-0.2l-0.9-3.8l-0.5,3.6c-0.9-0.1-1.6-0.2-2.3-0.2l-0.7-3.3l-0.5,3.3c-0.2,0-0.6,0-0.9,0c-0.4,0-0.9,0-1.4,0
				l-0.7-3.3l-0.5,3.4c-0.7,0.1-1.4,0.1-2.1,0.2l-0.5-3.7l-1,3.8c-0.4,0.1-0.9,0.1-1.2,0.2h-0.1v-5.4l0,0v-1.5c0,0,0,0,0-0.1
				c0-0.5,0.2-0.7,0.6-1.1c0.1,0,0.1-0.1,0.2-0.1c0.4-0.2,1.1-0.6,2.1-0.9c0.4-0.1,1-0.1,1.6-0.2s1.4-0.1,2.2-0.1l0,0l0,0h0.1
				c0.2,0,0.4,0,0.6,0c0,0,0.2,0,0.6,0C217.1,512.6,222.1,513.3,222.1,515.2z"/>
			
				<linearGradient id="SVGID_00000030485101597506416180000005217463441992065440_" gradientUnits="userSpaceOnUse" x1="-281.8972" y1="-147.1866" x2="-276.2201" y2="-141.5096" gradientTransform="matrix(1 0 0 -1 497.2342 372)">
				<stop  offset="0" style="stop-color:#1EFF8B"/>
				<stop  offset="0.5029" style="stop-color:#FAFD2D"/>
				<stop  offset="1" style="stop-color:#1DCDE5"/>
			</linearGradient>
			<path style="fill:url(#SVGID_00000030485101597506416180000005217463441992065440_);" d="M222.1,515.5v6.8H222
				c-0.5-0.1-1-0.2-1.6-0.4l-0.9-3.8l-0.5,3.6c-0.5,0-1.1-0.1-1.6-0.1c0-3.8-2.2-7.1-5.4-8.9c0.5-0.1,1.1-0.1,1.8-0.1l0,0l0,0h0.1
				c0.2,0,0.4,0,0.6,0c0,0,0.2,0,0.6,0C217.1,512.6,222.1,513.3,222.1,515.5z"/>
			<circle class="st9" cx="214.3" cy="542.5" r="21.4"/>
		</g>
		<g>
			<g>
				<path class="st10" d="M204.1,415.9c1.4-0.7,2.7,0.9,3.4,2.2c2.6,5,5.2,10,7.7,15c1.5,2.7,2.8,6.1,1.2,8.7
					c-1.4,2.2-4.4,2.8-6.9,2.1c-2.5-0.7-4.4-2.5-6.4-4.2c-6-5.3-11.9-10.6-18-15.9c-13.3-11.7-27.1-24-34.2-40.2
					c1.7-0.9,3.8-0.1,5.7,0.7c11.8,5.4,22.7,12.9,32,22c4.1,3.9,8.1,8.5,13.5,9.8"/>
			</g>
			<g>
				<path class="st10" d="M271,459.3c3.1,1.5,0.5,7.4,3.4,9c2.8,1.6,6.8-3.4,9.2-1.2c0.4,0.5,0.6,1,0.9,1.6c1.5,3.7,3,7.7,1.5,11.4
					c-0.6,1.5-1.6,2.6-2.3,3.9c-1.8,3.1-2.6,6.8-4.2,10c-1.6,3.2-4.9,6.1-8.5,5.5c-2.8-0.4-4.8-3-5.8-5.5c-1-2.6-1.1-5.4-1.5-8.2
					c-1.8-12.2-9.8-22.9-11.1-35.2c-0.2-2.3,0.1-5.2,2.2-6.1c1.7-0.7,3.7,0.2,4.9,1.6c1.1,1.4,1.7,3.2,2.6,4.8
					c1.7,3.6,4.7,6.5,8.2,8.2"/>
			</g>
			<g>
				<path class="st10" d="M329.7,396.1c1.4-0.5,2.2-1.8,3.2-3.1c1-1.1,2.3-2.3,3.8-2.1c0.5,2,0.1,4.1-0.6,6c-0.9,1.8-2,3.6-3.2,5.3
					c-0.9,1.2-1.7,2.6-2.8,3.7c-0.7,0.7-1.5,1.5-2.3,2.2c-1.8,1.6-3.7,3.2-6,3.9c-0.9-1.2-0.5-3,0.1-4.3c0.6-1.4,1.6-2.7,1.8-4.2
					c0.2-1.1,0-2.3,0-3.4c0-1.5,0.4-3.1,1-4.4c0.2-0.6,0.6-1,1.1-1.4c0.5-0.4,1.2-0.1,1.5,0.4c0.1,0.5-0.1,1,0.1,1.5
					c0.4,0.7,1.6,0.2,2.2-0.4"/>
			</g>
			<g>
				<path class="st10" d="M145.8,366.3c-0.9-2.5-2-5-4.2-6.1c-0.9-0.4-1.7-0.6-2.6-1c-2.5-1-4.3-3.1-5.8-5.3
					c-1.5-2.2-2.6-4.7-4.2-6.8c-0.4-0.5-1.1-1.1-1.6-0.6c-0.2,0.2-0.2,0.9-0.1,1.2c0.9,4.2,2.8,8.2,5.5,11.6
					c1.6,1.8,3.3,3.7,4.2,5.9c0.5,1.2,0.7,2.7,1.1,4.1c0.4,1.4,1.1,2.6,2.5,3.2c0.7,0.4,1.7,0.4,2.6,0.4c0.4,0,0.6,0,0.9-0.1
					s0.2-0.5,0.4-0.7C144.9,370.1,145.3,368.1,145.8,366.3"/>
			</g>
		</g>
		<g>
			<path class="st6" d="M26,322.3c-0.5,1.1-1.2,2.3-2.3,3.6c-1.4,1.5-3.1,2.2-4.3,2.6c1.2,0.6,2,1.8,2,3.2c0,0.7-0.2,1.5-0.7,2.1
				c1.2,0.2,2.1,0.7,2.1,1.4v4.4c-0.1,0-0.1,0-0.1,0c-0.4-0.1-0.7-0.2-1.1-0.2l-0.6-2.5l-0.4,2.3c-0.5,0-1-0.1-1.5-0.1l-0.5-2.2
				l-0.4,2.2c-0.2,0-0.4,0-0.6,0s-0.6,0-0.9,0l-0.5-2.2l-0.4,2.2c-0.5,0-0.9,0.1-1.4,0.1l-0.2-2.3l-0.6,2.6c-0.4,0-0.6,0.1-0.9,0.1
				c-0.1,0-0.1,0-0.1,0v-4.4c0-0.7,0.9-1.2,2-1.5c-0.4-0.6-0.6-1.4-0.6-2.1c0-1.5,1-2.8,2.3-3.3c-1.4-0.2-3.2-0.9-4.7-2.2
				c-2.2-2-3.9-4.8-2.8-6c0.5-0.6,1.5-0.6,2.7-0.1c1.1,0.5,2.3,1.2,3.6,2.3c1.1,0.9,1.7,2.1,2.2,3.1v-39.6H18v39.5
				c0.4-0.9,1-2,1.7-2.8c2-2.2,4.8-3.9,6-2.8C26.4,319.9,26.4,320.9,26,322.3z M12.1,325.4c1.4,1.4,3.2,1.8,4.3,2.1l0,0
				c0-0.5,0.2-0.7,0.5-1c-0.2-1-1-2.6-2.3-3.8c-1.1-1-2.2-1.8-3.3-2.2c-0.5-0.1-0.9-0.2-1.2-0.2c-0.2,0-0.5,0.1-0.6,0.2
				C8.8,321,9.9,323.3,12.1,325.4z M17.5,328.9h-0.1c-1.5,0.1-2.6,1.2-2.6,2.7c0,0.7,0.2,1.4,0.7,1.8c0.5-0.1,1-0.1,1.5-0.1
				c0.9,0,1.6,0,2.3,0.1c0.5-0.5,0.9-1.2,0.9-2C20.2,330.1,19.1,328.9,17.5,328.9z M25.3,319.9c-0.1-0.1-0.2-0.1-0.5-0.1
				c-0.9,0-2.7,1.1-4.4,3c-1.1,1.2-1.7,2.6-2,3.7c0.2,0.2,0.5,0.6,0.5,1c0,0.1,0,0.1,0,0.2c1.1-0.4,2.8-1,4.2-2.5
				c1-1.1,1.8-2.2,2.2-3.3C25.5,320.9,25.6,320.3,25.3,319.9z"/>
			
				<linearGradient id="SVGID_00000088846453369497175330000012181091869135447441_" gradientUnits="userSpaceOnUse" x1="-483.0916" y1="31.0491" x2="-475.7734" y2="38.3673" gradientTransform="matrix(1 0 0 -1 497.2342 372)">
				<stop  offset="0" style="stop-color:#1EFF8B"/>
				<stop  offset="0.5029" style="stop-color:#FAFD2D"/>
				<stop  offset="1" style="stop-color:#1DCDE5"/>
			</linearGradient>
			<path style="fill:url(#SVGID_00000088846453369497175330000012181091869135447441_);" d="M22.9,335.3v4.4c-0.1,0-0.1,0-0.1,0
				c-0.4-0.1-0.7-0.2-1.1-0.2l-0.6-2.5l-0.4,2.3c-0.5,0-1-0.1-1.5-0.1l-0.5-2.2l-0.4,2.2c-0.2,0-0.4,0-0.6,0s-0.6,0-0.9,0l-0.5-2.2
				l-0.4,2.2c-0.5,0-0.9,0.1-1.4,0.1l-0.2-2.3l-0.6,2.6c-0.4,0-0.6,0.1-0.9,0.1c-0.1,0-0.1,0-0.1,0v-3.6l0,0v-1v-0.1
				c0-0.2,0.1-0.5,0.4-0.7l0.1-0.1c0.2-0.2,0.7-0.5,1.4-0.6c0.4,0,0.7-0.1,1.1-0.1c0.5-0.1,1-0.1,1.5-0.1l0,0l0,0c0.1,0,0.1,0,0.1,0
				c0.1,0,0.2,0,0.4,0c0,0,0.1,0,0.4,0C19.2,333.3,22.5,333.8,22.9,335.3z"/>
			
				<linearGradient id="SVGID_00000077322598285180749710000002104635448167535237_" gradientUnits="userSpaceOnUse" x1="-479.0714" y1="34.27" x2="-475.3645" y2="37.9769" gradientTransform="matrix(1 0 0 -1 497.2342 372)">
				<stop  offset="0" style="stop-color:#1EFF8B"/>
				<stop  offset="0.5029" style="stop-color:#FAFD2D"/>
				<stop  offset="1" style="stop-color:#1DCDE5"/>
			</linearGradient>
			<path style="fill:url(#SVGID_00000077322598285180749710000002104635448167535237_);" d="M22.8,335.2v4.4c-0.1,0-0.1,0-0.1,0
				c-0.4-0.1-0.7-0.2-1.1-0.2l-0.6-2.5l-0.4,2.3c-0.2-0.1-0.6-0.1-1-0.1c-0.1-2.6-1.5-4.7-3.6-5.8c0.4,0,0.7,0,1.2,0l0,0l0,0
				c0.1,0,0.1,0,0.1,0c0.1,0,0.2,0,0.4,0c0,0,0.1,0,0.4,0C19.2,333.3,22.5,333.8,22.8,335.2z"/>
			<ellipse class="st13" cx="17.4" cy="352.8" rx="13.9" ry="13.9"/>
		</g>
		
			<linearGradient id="SVGID_00000095321646067275918120000002462931808177127325_" gradientUnits="userSpaceOnUse" x1="-328.9442" y1="-97.9759" x2="-137.7906" y2="93.1777" gradientTransform="matrix(1 0 0 -1 497.2342 372)">
			<stop  offset="0" style="stop-color:#00A862"/>
			<stop  offset="0.4903" style="stop-color:#1EFF8B"/>
			<stop  offset="1" style="stop-color:#FAFD2D"/>
		</linearGradient>
		<path style="fill:url(#SVGID_00000095321646067275918120000002462931808177127325_);" d="M140.4,227.5
			c-10.2-16-19.7-35.7-29.4-57.8C77.9,93.6,83.9,44.6,88.6,8L78.5,2.1c-0.7-0.1-1.5,0.2-1.6,1c-9.7,41.8-19.1,111.2,3.6,189.7
			c6.8,23.7,15.5,44.5,24.5,62.3c0.1,0,0.1,0.1,0.1,0.1c1.1,2.8,31.5,77.3,77.8,158.8c-0.1,0-0.2-0.1-0.4-0.1
			c-0.1-0.1-0.2-0.1-0.4-0.1c2.8,4.5,5,8,6.5,10.3c0.6,1.1-0.4,2.5-1.6,2c-13-5-57.8-22.7-89.5-43.7c-15.7-10.5-35.3-30.6-52.5-50.2
			c1.5,2.1,3.1,4.2,4.8,6.4c0.5,0.6,1,1.2,1.5,1.8c0.2,0.4,0.5,0.6,0.7,1c0.2,0.4,0.5,0.6,0.7,1s0.5,0.6,0.7,1
			c0.5,0.6,1,1.2,1.5,1.8c0.5,0.7,1.1,1.4,1.6,2c0.2,0.4,0.5,0.6,0.7,1c4.4,5.3,9.2,10.7,14.4,16.2c0.5,0.5,0.9,0.9,1.4,1.4
			c2.3,2.3,4.7,4.8,7.1,7.1c0.5,0.5,1,1,1.5,1.5c0.1,0.1,0.4,0.4,0.5,0.5c0.4,0.5,0.9,0.9,1.2,1.2c0.2,0.2,0.4,0.4,0.6,0.6
			c0.5,0.5,1,0.9,1.5,1.4c1.4,1.2,2.6,2.3,3.9,3.6c0.5,0.5,1,1,1.6,1.5c0.6,0.5,1.1,1,1.7,1.5c0.9,0.7,1.7,1.5,2.6,2.2
			c0.5,0.5,1.1,0.9,1.6,1.4c0.1,0.1,0.2,0.2,0.4,0.4c0.5,0.5,1.1,0.9,1.6,1.4c0.2,0.2,0.5,0.4,0.7,0.6c0.4,0.4,0.9,0.7,1.2,1.1
			c0.9,0.6,1.6,1.2,2.3,1.8c0.6,0.5,1.1,0.9,1.7,1.4c0.7,0.6,1.6,1.2,2.3,1.8c0.6,0.5,1.4,1,2,1.5c0.9,0.7,1.7,1.4,2.6,2
			c0.5,0.4,1.1,0.9,1.7,1.2c0.7,0.5,1.4,1,2.1,1.5c0,0.1,0.1,0.1,0.1,0.1c0.7,0.5,1.5,1.1,2.2,1.6c0.9,0.6,1.8,1.4,2.8,2
			c0.5,0.4,1,0.7,1.6,1.1c0.7,0.5,1.6,1.1,2.3,1.6c0.9,0.5,1.6,1,2.3,1.5c0.7,0.5,1.6,1,2.3,1.5c0.7,0.5,1.5,1,2.2,1.5
			c0,0.1,0.1,0.1,0.1,0.1c0.9,0.5,1.6,1,2.5,1.5s1.7,1.1,2.6,1.6c0.7,0.4,1.4,0.7,2,1.1c0.1,0,0.4,0.1,0.5,0.2
			c0.7,0.4,1.4,0.9,2.1,1.2c0.1,0.1,0.4,0.1,0.5,0.2c0.7,0.5,1.6,0.9,2.3,1.4c0.9,0.4,1.7,0.9,2.6,1.4c0.9,0.4,1.7,0.9,2.6,1.4
			c1.5,0.9,3,1.6,4.4,2.3c1.2,0.6,2.3,1.1,3.6,1.7c0.9,0.5,1.8,1,2.7,1.4l0,0c0.9,0.4,1.8,0.9,2.7,1.2c1,0.4,1.8,0.9,2.8,1.2
			c1.8,0.9,3.8,1.6,5.7,2.5c0.1,0,0.1,0.1,0.2,0.1c0.9,0.4,1.7,0.7,2.6,1.1c1,0.4,1.8,0.7,2.8,1.1c1.7,0.6,3.4,1.4,5.2,2
			c0.4,0.1,0.9,0.4,1.2,0.5c0.6,0.1,1.2,0.4,1.8,0.6c0.4,0.1,0.9,0.4,1.2,0.5c0.9,0.4,1.7,0.7,2.6,1c0.9,0.2,1.7,0.6,2.6,0.9
			c0.1,0,0.2,0.1,0.4,0.1c1,0.2,1.8,0.6,2.7,0.9c0.1,0,0.2,0.1,0.4,0.1c1,0.2,1.8,0.6,2.8,0.9c0.1,0,0.2,0.1,0.4,0.1
			c0.9,0.2,1.6,0.5,2.5,0.7c0.2,0.1,0.6,0.4,0.7,0.6c10.3,17,21.4,33.9,32.8,50.3c74.5,106,149,206,219.4,246.3
			c0.7,0.5,1.7,0.1,2-0.7l8.2-28.4l1.7-5.8l3.2-11.1l0.4-1.2c0.1-0.5-0.1-1.2-0.6-1.5c-3.8-2.1-7.9-4.4-12.1-7
			c-30.1-18.3-63.8-42.2-101.5-79.9c-21.3-21.3-33.7-32.6-29.9-36c3.8-3.6,57.1,57.8,100.6,88.3c14.4,10.1,29.4,18.1,45.1,25
			c0.7,0.2,1.6-0.1,1.8-0.9l0.9-3c0.2-0.5-0.1-1.2-0.6-1.5c-9.7-5.3-93.8-53.4-178.3-169.7c-0.2-0.2-0.2-0.6-0.2-1
			c3.6-24.6,10.3-77.6,12.5-138.1c0-0.2,0.1-0.5,0.2-0.7c7.1-9.5,21.5-30.7,25.2-55.5c0.1-0.7-0.4-1.4-1-1.5l0,0
			c-0.7-0.2-1.5,0.2-1.6,1c-0.9,4.2-4.7,18.3-20,39.1c-0.7,1-2.3,0.4-2.3-0.9c0.9-40.3-0.7-83-6.6-121.9c-0.1-0.6-0.7-1.1-1.4-1.1
			H297c-0.9,0-1.5,0.6-1.4,1.5c2.5,14.5,20,132.2-21.5,245.6c-0.4,1-1.7,1.1-2.3,0.2c-1.5-2.2-2.8-4.4-4.3-6.6"/>
		<path class="st15" d="M279.9,526.5c7.7-18.1,24.1-58.2,38.2-104.8c7.6-5.9,23.9-19.8,31.8-38.9l-1.8-1c0,0-4.8,12.5-26.8,29.3
			c9.3-32.2,17.2-67,20.5-99.5l-3.9-1c0,0-7.5,103.2-68.2,188.1c-0.9-2.6-1.8-5.2-2.7-7.9c-35.2-105.5-46.4-172.3-49.7-198.7
			c-1.4-10.5-3.2-20.8-5.5-31l-0.1-0.7c-3.4-21.8-6-46.2-6.3-73c-0.6-60-4.5-110.8,6.8-148.7h-6.8c0,0-12.2,1.1-21.3,86.8
			c-9.1,85.7-1.5,168.2-1.5,168.2s8.6,64.7,28.9,138.1c-13.6-6.9-37.8-21.6-59.8-48.3c4.8-63.2-4.2-86.7-4.2-86.7l-1.4,0.4
			c5.8,45.6,0.7,67.5-2.5,76c-13.9-19.3-26.3-44-33.8-75l-3.4-0.5c0,0,15.7,103.7,113,161.5c4.7,15.2,10,30.7,15.7,45.7
			c37.5,97.4,76.1,189.9,123.7,234.8l27.8-45.7C386.8,694,325.8,640.2,279.9,526.5z"/>
		<path class="st16" d="M188.4,279.4l-0.9-56.7c2.7-37.3,5.4-74.3,8.1-111.5l11.7-72.3h-2c0,0-6.8-0.2-10.7,13
			c-10.2,34.6-23.4,120.4-12.1,242c0,0,8.6,64.7,29,138.2c-0.1,0-0.4-0.1-0.5-0.2c1.6,4.8,2.8,8.4,3.4,10.3c0.2,0.6-0.5,1.1-1,0.7
			c-7.7-5.3-41.2-28.9-62.7-52.3c-7.3-7.7-15-19.7-22.3-32.7c-0.5-0.7-1.6-0.1-1.2,0.6c16.2,32.7,44.3,72.2,92,100.6
			c0.1,0.1,0.2,0.2,0.2,0.4c4.8,15.2,10,30.5,15.7,45.5c37.3,96.9,75.8,189.1,123.1,234.1c0.2,0.4,0.7,0.2,1-0.1l12.4-20.7l2.5-4.1
			l4.8-7.9c-0.1-0.1-0.2-0.2-0.4-0.4c-30.6-25.1-55.6-57.4-75.4-91.1c-27.1-46.1-50.3-125.4-56.7-123.5c-1.1,0.4-1.8,1.2-2.2,2.6
			c-0.1,0.7-1,0.7-1.2,0.1c-29.9-84.1-45-146.2-52.5-189.5C189.3,296.3,188.6,287.8,188.4,279.4z"/>
		<path class="st17" d="M71,358.7c1.8,2,3.7,3.9,5.5,6c1.8,0.6,3.7,1.2,5.4-0.2c1.7-1.6,1.6-3.7,1.2-5.7c-0.5-3-2.3-5.4-2.7-8.4
			c-0.4-0.1-0.6-0.4-0.7-0.7c-1.2-2.8-2.5-5.7-3.6-8.5c-1-2.3-1.7-5-5.2-4.4c-0.5,0-1.1-0.5-1.6-0.7c-2-1.2-3.7-2.8-5-4.7
			c-4.5-6.1-9.5-12.1-15.1-17.2c-4.2-3.8-8.5-7.3-13.3-10.2c-1-0.6-2.1-1.1-3.2-0.6c-1.2,0.6,0.2,1.7-0.1,2.6c0,0.1,0,0.4,0,0.5l0,0
			c0.2,0.1,0.4,0.4,0.5,0.6c1.4,2.6,2.7,5.3,4.1,7.9c4.9,8.6,10.9,16.5,17.3,24.1c3.9,4.5,8,8.9,11.6,13.6
			C67.9,354.4,69.5,356.5,71,358.7z"/>
		<path class="st17" d="M144.7,362.9c-0.6-1.2-1.5-2.6-2.8-3c-4.9-1.4-7.6-5.2-10.1-9.3c-1-1.7-1.6-3.8-3.8-4.4
			c4.5,9.3,10,18.2,16.2,26.9c0.7-2.7,1.7-5,2-7.6C145.4,364.8,145.2,363.8,144.7,362.9z"/>
		<path class="st17" d="M167.5,406.4c11.6,12.2,24.6,22.6,37,33.8c1.5,1.5,3.2,2.7,5.2,3.4c2.5,0.9,4.8,0.9,6.8-0.9
			c2-1.7,1.8-4.1,1.1-6.4c-0.5-1.2-1.1-2.6-1.7-3.8c-2.7-5.2-5.4-10.5-8.1-15.6c-0.7-0.5-1.4-1.5-2.3-1.2c-4.3,1-7.3-1.5-10.2-3.9
			c-4.8-4.1-9.1-8.9-14-12.8c-4.1-3.2-8.5-5.9-12.5-9c-2.1-1.1-4.1-2.2-6.1-3.2c-3.3-1.6-6.3-3.8-10.2-3.6c-1.4,0.5-0.5,1.4-0.2,2
			c2.1,4.5,4.9,8.7,7.7,12.8C162.2,401,164.6,404.1,167.5,406.4z"/>
		<path class="st17" d="M285.5,469c-1.1-2.7-2.1-3.1-4.8-2c-1.2,0.5-2.2,1.5-3.7,1.1c-2,0.4-3-0.5-3.2-2.5c-0.1-0.9-0.5-1.7-0.4-2.6
			c0.2-2.1-0.9-3.7-2.6-4.5c-4.2-2.2-6.6-5.8-8.5-10c-1.5-3.6-3.7-4.8-7.6-4.4c0.4,1.2-0.9,1.7-1.1,2.6c-0.1,2.5-0.1,4.8,0.4,7.1
			c1.2,5.9,3.6,11.3,5.9,16.8c2.5,6,4.7,12.2,5.2,18.7c0.2,2.6,0.9,5.2,2.5,7.4c2.3,3.2,6,3.8,9.3,1.5c2.5-1.6,3.7-4.1,4.7-6.6
			c0.9-2.3,1.4-5,3-7.1c2.7-3.7,3.4-7.6,2.3-12.1C286.4,471.3,286,470.2,285.5,469z"/>
		<path class="st17" d="M180.9,296.7c-4.3-13.6-9.1-27.2-15.2-40.2c-3.6-7.6-8.4-14.5-12.4-21.9c-3-5.5-5.7-11.2-9-16.5
			c-6.4-10.6-13.3-20.8-20.4-30.9c-3.8-5.4-7.7-10.6-11.7-15.7c-0.2-0.1-0.4-0.4-0.6-0.5l0,0c-2.1,0.4-0.9,1.8-0.6,2.6
			c1,3.2,2.6,6.1,4.3,9.1c5.7,9.8,11.3,19.8,14.8,30.7c0.9,3,2.3,5.7,3.9,8.2c1,1.5,1.5,3.2,1.8,4.9c0.2,0.9,0.6,1.8-0.2,2.5
			c-1,0.7-1.7-0.2-2.5-0.9c-1.6-1.4-2.7-3.1-4.1-4.7c-1.4-1.7-2.6-3.4-4.5-4.5c-0.6-0.4-1.4-0.7-2.1-0.2c-0.7,0.6-0.5,1.4-0.2,2.1
			c0.4,1.1,0.7,2.2,1.4,3.3c4.7,8.7,10.3,16.7,16.5,24.5c7.3,9.1,15.2,17.3,21.2,27.4c4.4,7.6,8.7,15.2,13.2,22.9
			c2.8,4.8,5.7,9.6,9.5,13.8c0.6,0.7,1.2,1.7,2.3,1.8c-0.2-3-1.1-5.7-1.7-8.5C182.8,303.2,182.2,299.9,180.9,296.7z"/>
		<path class="st17" d="M87.4,84.2c3.1-6.4,5-13.2,7.5-19.8c0.4-1,0.9-2.1-0.2-2.8c-2.2-1.4-2.6-3.4-2.6-5.8
			c-0.1-5.3,0.5-10.5,0.9-15.7c0.2-3.7,0-7.4-0.4-11.1c-0.5-5.8-1.2-11.3-3-16.8c-0.1-0.9-0.2-1.7-1.4-1.8c-0.2,1.7-0.5,3.6-0.7,5.3
			c-2.3,18.6-3.3,37.3-2,56c0.4,4.7,0.6,9.2,1.6,13.8C87.1,85.1,87.2,84.6,87.4,84.2z"/>
		<path class="st17" d="M95.5,115.3c0.6-3.3,0.5-6.6-1.7-9.1c-2.2-2.5-3.1-5.2-3.9-8.1c-0.7-2.3-0.7-4.9-2.1-7
			c0.6,5.5,0.6,11.2,2.8,16.6c0.6,1.6,1,3.4,1,5.2c0,3.1,1,5.8,2.7,8.2C94.6,119.1,95.1,117.2,95.5,115.3z"/>
		<path id="icon:2" class="st18" d="M231,533.3l0.5,0v1l-4.2,2.3l0.7,0.4v0.9l-0.9,0.5l-1.6-0.9l-3.4,1.8l1.6,0.9v0.9l-0.9,0.5
			l-2.5-1.2l-1.7,1v2.6l1.7,1l2.5-1.4l0.9,0.5v0.9l-1.6,0.9l3.4,1.8l1.6-0.9l0.9,0.5v0.9l-0.7,0.4l4.2,2.3v0.9l-0.9,0.5l-4.2-2.3
			v0.7l-0.9,0.5l-0.9-0.5v-1.7l-3.4-1.8v1.7l-0.9,0.5l-0.9-0.5v-2.6l-1.7-1l-2.3,1.2v2l2.3,1.4v0.9L217,551l-1.6-0.9v3.8l1.6,0.9
			v0.9l-0.9,0.5l-0.7-0.4v4.6l-0.9,0.5l-0.9-0.5v-4.5l-0.7,0.4l-0.9-0.5v-0.9l1.5-0.9v-3.8l-1.6,0.9l-0.9-0.5v-0.9l1.7-1.6v-2
			l-2.3-1.2l-1.7,1v2.6l-0.9,0.5l-0.9-0.5v-1.7l-3.4,1.8v1.7l-0.9,0.5l-0.9-0.5v-0.7l-4.2,2.3l-0.9-0.5v-0.9l4.2-2.3l-0.7-0.4v-0.9
			l0.9-0.5l1.6,0.9l3.4-1.8l-1.6-0.9v-0.9l0.9-0.5l2.5,1.4l1.7-1V541l-1.7-1l-2.5,1.4l-0.9-0.5v-0.9l1.6-0.9l-3.4-1.8l-1.6,0.9
			l-0.9-0.5v-0.9l0.7-0.4l-4.2-2.3v-0.9l0.9-0.5l4.2,2.3v-0.7l0.9-0.5l0.9,0.5v1.7l3.4,1.8v-1.7l0.9-0.5l0.9,0.5v2.6l1.7,1l2.3-1.2
			v-2l-2.3-1.4v-0.9l0.9-0.5l1.6,0.9V531l-1.5-0.9v-0.9l0.9-0.5l0.7,0.4v-4.5l0.9-0.5l0.9,0.5v4.5l0.7-0.4l0.9,0.5v0.9l-1.5,0.9v3.8
			l1.6-0.9l0.9,0.5v0.9l-2.3,1.4v2l2.3,1.2l1.7-1v-2.6l0.9-0.5l0.9,0.5v1.7l3.4-1.8v-1.7l0.9-0.5l0.9,0.5v0.7l4.2-2.3L231,533.3
			L231,533.3z"/>
		<path id="icon:2_00000072988564804226275460000017709854838429802883_" class="st18" d="M28.2,347.2l-0.1,0.6l-2.7,1.5l0.5,0.2
			v0.6l-0.5,0.2l-1.2-0.5l-2.2,1.2l1,0.5v0.6l-0.5,0.2l-1.5-0.9l-1.1,0.6v1.6l1.1,0.6l1.5-0.9l0.5,0.2v0.6l-1,0.5l2.2,1.2l1-0.5
			l0.5,0.2v0.6l-0.5,0.2l2.7,1.5v0.6l-0.5,0.2l-2.7-1.5v0.5l-0.5,0.2l-0.5-0.2v-1.1l-2.2-1.2v1.1l-0.5,0.2l-0.5-0.2v-1.6l-1.1-0.6
			l-1.5,0.9v1.2l1.5,0.9v0.6l-0.5,0.2l-1-0.6v2.5l1,0.5v0.6l-0.5,0.2l-0.5-0.2v3l-0.5,0.2l-0.5-0.2v-3l-0.5,0.2l-0.5-0.2v-0.6l1-0.5
			v-2.5l-1,0.5l-0.5-0.2v-0.6l1.5-0.9v-1.2l-1.5-0.9l-1.1,0.6v1.7l-0.5,0.2l-0.5-0.2v-1.1l-2.2,1.2v1.1l-0.5,0.2l-0.5-0.2v-0.5
			l-2.7,1.5l-0.5-0.2v-0.6l2.7-1.5l-0.5-0.2V356l0.5-0.2l1,0.5l2.2-1.2l-1-0.5v-0.6l0.5-0.2l1.5,0.9l1.1-0.6v-1.6l-1.1-0.6l-1.5,0.9
			l-0.5-0.2v-0.6l1.1-0.4l-2.2-1.2l-1,0.5l-0.5-0.2v-0.6l0.5-0.2L7.1,348v-0.6l0.5-0.2l2.7,1.5v-0.5l0.5-0.2l0.5,0.2v1.1l2.2,1.2
			v-1.1l0.5-0.2l0.5,0.2v1.6l1.1,0.6l1.5-0.9v-1.2l-1.5-0.9V348l0.7-0.2l1,0.6v-2.5l-1-0.5v-0.6l0.5-0.2l0.5,0.2v-3l0.5-0.2l0.5,0.2
			v2.8l0.5-0.2l0.5,0.2v0.6l-1,0.5v2.5l1-0.5l0.5,0.2v0.6l-1.5,0.9v1.2l1.5,0.9l1.1-0.6v-1.7l0.5-0.2l0.5,0.2v1.1l2.2-1.2V348
			l0.5-0.2L25,348v0.5l2.7-1.5L28.2,347.2L28.2,347.2z"/>
	</g>
</g>
</svg>
