<?xml version="1.0" encoding="utf-8"?>
<!-- Generator: Adobe Illustrator 26.4.1, SVG Export Plug-In . SVG Version: 6.00 Build 0)  -->
<svg version="1.1" id="Layer_1" xmlns="http://www.w3.org/2000/svg" xmlns:xlink="http://www.w3.org/1999/xlink" x="0px" y="0px"
	 viewBox="0 0 762.6 182" style="enable-background:new 0 0 762.6 182;" xml:space="preserve">
<style type="text/css">
	.st0{fill:url(#Path_221_00000028313710337720167920000017334077423009195918_);}
	.st1{fill:url(#Path_222_00000062896117819757525660000007314231094511372956_);}
	.st2{fill:url(#Path_223_00000157277012665708698030000010673806761344499894_);}
	.st3{fill:url(#Path_224_00000016067653279349476200000006038769775054556564_);}
	.st4{fill:url(#Path_225_00000069397459208412345140000015868906413913388207_);}
	.st5{fill:url(#Path_226_00000134221905680792356520000007652536465928565146_);}
	.st6{fill:url(#Path_227_00000151514731152175296020000008345637027816521114_);}
	.st7{fill:url(#Path_228_00000148651215048802024600000004770785353498166425_);}
	.st8{fill:url(#Path_229_00000095325116696408381880000014978304912446975129_);}
	.st9{fill:url(#Path_230_00000162323423241899917980000017044713872017343148_);}
	.st10{fill:url(#Path_232_00000165947078883121748340000011869568969844745148_);}
	.st11{fill:url(#Path_233_00000060735384130596751450000011775879057501821324_);}
	.st12{fill:url(#Path_237_00000005970836501340278590000010836692459820872588_);}
	.st13{fill:url(#Path_238_00000042005051248218528200000002127140623782738315_);}
	.st14{fill:url(#Path_239_00000075126279064723525970000009780185971459607207_);}
	.st15{fill:url(#Path_241_00000160868737383424954320000005789576205082058673_);}
	.st16{fill:url(#Path_242_00000085228856801597342630000007910131199780339331_);}
	.st17{fill:url(#Path_245_00000070101955595899801830000003557592740740769469_);}
	.st18{fill:url(#SVGID_1_);}
	.st19{fill:url(#SVGID_00000057857434012585513600000007217155365266836151_);}
	.st20{fill:url(#SVGID_00000049903588659945759130000004628989839452490148_);}
	.st21{fill:url(#SVGID_00000027594383208612001610000007642649079807011236_);}
	.st22{fill:url(#SVGID_00000150783548911669985860000011983723642762389181_);}
	.st23{fill:url(#SVGID_00000124842045913826522910000013852804205752278974_);}
	.st24{fill:url(#SVGID_00000056422521211919540240000017895681100635960240_);}
	.st25{fill:url(#SVGID_00000127021656225320536390000013052096089083120269_);}
	.st26{fill:url(#SVGID_00000127727856318173833060000014986484648522417546_);}
	.st27{fill:url(#SVGID_00000068641895729950204090000013108929430057407417_);}
	.st28{fill:#00CEE7;}
	.st29{fill:none;}
	.st30{fill:#FFFFFF;}
	.st31{fill:url(#Path_234_00000029032589414824072430000008510999116830098093_);}
	.st32{fill:url(#Path_235_00000149356933077910339320000005245425980994102416_);}
	.st33{fill:url(#Path_236_00000023266536758165334510000017544820357082927012_);}
</style>
<linearGradient id="Path_221_00000034802893005039448010000004652896177869927572_" gradientUnits="userSpaceOnUse" x1="-14.775" y1="121.125" x2="137.475" y2="-31.1251" gradientTransform="matrix(1 0 0 -1 0 184)">
	<stop  offset="1.085909e-02" style="stop-color:#F6FD00"/>
	<stop  offset="0.4748" style="stop-color:#00FF7B"/>
	<stop  offset="1" style="stop-color:#00CEE7"/>
</linearGradient>
<path id="Path_221_00000067939737851680903350000004187229895346976167_" style="fill:url(#Path_221_00000034802893005039448010000004652896177869927572_);" d="
	M168.1,158.4l-0.4,1c-0.7,1.9-1.6,3.7-2.7,5.4c-1.1,1.7-2.4,3.3-3.9,4.6c-1.6,1.4-3.4,2.5-5.4,3.2l0,0l-125.2-0.2L29,108l1.6-55.4
	c0.1-1.1,0.4-2.1,1-3.1c0.6-0.9,1.3-1.6,2.2-2.2c1.2-0.7,2.7-1.1,4.1-1V45H3.1v1.5c1.5-0.1,3,0.2,4.3,1C8.2,48,9,48.7,9.5,49.6
	c0.5,0.9,0.8,2,1,3l-1.2,84.5l2.8,3l-2.9,1.8l-0.1,6.3l1-0.4c0.3-1.4-0.9-3.4,1.8-3.6c0.1-0.2,0.3-0.3,0.4-0.4l-0.4-0.4l1-0.8
	c0.2,0.2,0.4,0.3,0.5,0.5l0,0c-0.2,0.4-0.5,0.7-0.8,1.1l-0.2-0.2c-0.1,1-0.4,2-0.7,2.9c-0.2,0.5-0.7,0.8-1.7,0.9v1.8
	c0.6,0.6,1.2,1.3,1.7,2.1c0.1,0.2-0.4,0.9-1.1,2.1c-0.3-1.7-0.8-3.4-1.6-4.9l-0.3,22.8c-0.1,1.3-0.5,2.6-1,3.8
	c-0.6,1-1.3,1.9-2.2,2.6c-1.2,0.8-2.7,1.2-4.2,1.1v1.5h170.6v-32.9h-1.5C170.5,151.3,169.7,155,168.1,158.4z M20,49.5L20,49.5
	l0.2,0.2c0.2,0.2,0.4,0.3,0.4,0.4c-0.1,0.4-0.3,0.8-0.6,1.2l-0.6-0.6L20,49.5z M14.9,139.9c-0.2,0.1-0.4,0.2-0.6,0.2
	c-0.2,0-0.4-0.4-0.6-0.6c0.4-0.2,0.8-0.4,1.2-0.6c0.1,0,0.3,0.2,0.4,0.4c0.1,0.1,0.1,0.1,0.2,0.2l0,0
	C15.3,139.7,15.1,139.8,14.9,139.9L14.9,139.9z M19.1,72.7c-0.5,0-1.1-0.2-1.4-0.6c-1.2-2.1,0.8-3,1.8-4.2c0.3-0.3,0.6-0.5,1-0.8
	c0.3,1.2,0.5,1.4,0.5,1.7C20.5,70.2,22,72.5,19.1,72.7L19.1,72.7z M25.7,127.4c-0.1,0.2-0.2,0.4-0.3,0.6l-0.6-0.6l0.6-1.1
	c0.1,0.1,0.2,0.2,0.4,0.3c0.1,0.1,0.2,0.2,0.2,0.3C25.9,127,25.8,127.2,25.7,127.4L25.7,127.4z M26.5,73.9c0.2-0.4,0.4-1.1,0.7-1.1
	c0.9,0,1.7,0.1,2.5,0.3c-0.4,0.6-0.7,1.4-0.9,1.4C28.1,74.3,27.3,74.1,26.5,73.9L26.5,73.9z"/>
<linearGradient id="Path_222_00000058574649107514122040000017304476540180098452_" gradientUnits="userSpaceOnUse" x1="45.175" y1="122.675" x2="110.725" y2="57.125" gradientTransform="matrix(1 0 0 -1 0 184)">
	<stop  offset="1.085909e-02" style="stop-color:#F6FD00"/>
	<stop  offset="0.4748" style="stop-color:#00FF7B"/>
	<stop  offset="1" style="stop-color:#00CEE7"/>
</linearGradient>
<path id="Path_222_00000016783386803517724170000007136272477128107407_" style="fill:url(#Path_222_00000058574649107514122040000017304476540180098452_);" d="
	M96.5,139.7c-1.5,0.1-3-0.3-4.3-1.2c-0.9-0.7-1.6-1.6-2.1-2.7c-0.5-1.3-0.8-2.7-0.9-4l-2-13.3l2-64.1c0.1-1.4,0.4-2.8,0.9-4.1
	c0.1-0.2,0.2-0.3,0.3-0.5l1.1-3.9c0.1,0.2,0.2,0.4,0.2,0.6c0.2-0.5,0.4-1.1,0.5-1.6H61.6v1.5c1.5-0.1,3,0.3,4.2,1.2
	c0.9,0.8,1.6,1.7,2.2,2.7c0.5,1.3,0.9,2.7,1,4l0.8,39.9L69,131.7c-0.1,1.4-0.5,2.8-1,4.1c-0.5,1-1.3,2-2.2,2.7
	c-1.2,0.9-2.7,1.3-4.2,1.2v1.5h34.8L96.5,139.7L96.5,139.7z M69.7,52.2c1.4-3.8,1.4-3.8,5.4-4L69.7,52.2z M73,56.2l-0.4-0.4l1-0.8
	c0.2,0.2,0.4,0.3,0.5,0.5l0,0c-0.2,0.4-0.5,0.7-0.8,1.1l-0.2-0.2c-0.2,0.3-0.4,0.6-0.6,1l0,0l-1.1,0.8c-0.1-0.4-0.4-1-0.3-1.1
	c0.4-0.2,0.9-0.4,1.4-0.5v0.3C72.8,56.7,72.9,56.5,73,56.2L73,56.2z M74.1,122.6v1.6h-4.7c0-0.3-0.1-0.6-0.1-0.9L74.1,122.6z
	 M70.9,130.6L70.9,130.6c0.4-0.1,0.8-0.3,1.1-0.4c0-0.4-0.1-0.9-0.3-1.3c-1-0.6-1,0.1-0.9,0.8l0,0l0,0c-0.2-0.2-0.3-0.3-0.5-0.5
	c-0.5-0.5-0.9-1-1.3-1.6c-0.1-0.2,0.4-0.9,1.1-2.1c0.6,1.1,1,2.2,1.5,3.4c0.5,0.3,0.9,0.6,1.3,1c0.1,0,0.2-0.1,0.3-0.1
	c0.3,0,0.6,0.6,1.9,2L70.9,130.6z M75.3,120.8c-0.8-0.1-1.6-0.3-2.3-0.6c0.2-0.4,0.4-1.1,0.7-1.1c0.9,0,1.7,0.1,2.5,0.3
	C75.8,120.1,75.5,120.8,75.3,120.8L75.3,120.8z"/>
<linearGradient id="Path_223_00000106828873032910660840000013062739027345593994_" gradientUnits="userSpaceOnUse" x1="93.0999" y1="138.8501" x2="95.4398" y2="136.5103" gradientTransform="matrix(1 0 0 -1 0 184)">
	<stop  offset="1.085909e-02" style="stop-color:#F6FD00"/>
	<stop  offset="0.4748" style="stop-color:#00FF7B"/>
	<stop  offset="1" style="stop-color:#00CEE7"/>
</linearGradient>
<path id="Path_223_00000173160958218693342630000008234898766679633599_" style="fill:url(#Path_223_00000106828873032910660840000013062739027345593994_);" d="
	M92.1,47.7L92.1,47.7c1.3-1,2.9-1.4,4.4-1.3V45h-3.2l0.5,0.4L92.3,46c-0.2,0.3-0.4,0.6-0.6,0.8C91.9,47.1,92,47.4,92.1,47.7z"/>
<linearGradient id="Path_224_00000076567384574538194370000009803583382166152888_" gradientUnits="userSpaceOnUse" x1="179.8507" y1="139.6992" x2="182.1564" y2="137.3936" gradientTransform="matrix(1 0 0 -1 0 184)">
	<stop  offset="1.085909e-02" style="stop-color:#F6FD00"/>
	<stop  offset="0.4748" style="stop-color:#00FF7B"/>
	<stop  offset="1" style="stop-color:#00CEE7"/>
</linearGradient>
<path id="Path_224_00000166651901294674064630000008290843175463190414_" style="fill:url(#Path_224_00000076567384574538194370000009803583382166152888_);" d="
	M180.5,46.6l0.3-0.3l0.7,0.9l0.3-2.8h-2.1c0.1,0.6,0.1,1.1,0.1,1.7L180.5,46.6z"/>
<linearGradient id="Path_225_00000078750540302548570700000014661121204276178595_" gradientUnits="userSpaceOnUse" x1="117.4041" y1="127.3986" x2="195.5014" y2="49.3014" gradientTransform="matrix(1 0 0 -1 0 184)">
	<stop  offset="1.085909e-02" style="stop-color:#F6FD00"/>
	<stop  offset="0.4748" style="stop-color:#00FF7B"/>
	<stop  offset="1" style="stop-color:#00CEE7"/>
</linearGradient>
<path id="Path_225_00000082368410225614892800000014809692643747087005_" style="fill:url(#Path_225_00000078750540302548570700000014661121204276178595_);" d="
	M162.2,99.7c1.5-0.1,3,0.2,4.3,1c0.9,0.6,1.6,1.3,2.1,2.2c0.5,1,0.9,2.1,1,3.2v27.2c-1.6,1.2-3.4,2.2-5.4,2.9
	c-2,0.8-4.1,1.3-6.2,1.6c-2.5,0.3-5.1,0.2-7.6-0.5c-3.1-0.8-6-2.1-8.6-3.9c-2.4-1.7-4.6-3.7-6.5-5.9c-1.8-2.2-3.4-4.6-4.7-7.1
	s-2.3-5-3.1-7.7c-2-6.3-3.2-12.9-3.4-19.5c0.2-7.7,1.7-15.3,4.4-22.6c1.1-2.9,2.5-5.6,4.2-8.2c1.7-2.7,3.9-5.1,6.3-7.2
	c2.6-2.2,5.5-3.9,8.7-5.1c0.4-0.2,0.8-0.3,1.3-0.4l0.7-1.3c0.2,0.2,0.7,0.5,0.6,0.7c0,0.1,0,0.1-0.1,0.1c3-0.8,6.1-1.1,9.2-1.1
	c2,0,3.9,0.4,5.6,1.3c1.6,0.9,3.1,2.1,4.3,3.6c1.3,1.6,2.3,3.3,3.1,5.1c0.9,1.9,1.6,3.9,2.1,6c0.8,5.4,1,10.8,0.6,16.2V81h3.1
	l3.1-33.2c-0.1,0.1-0.2,0.2-0.3,0.3c0,0,0,0-0.1,0c-0.3-0.2-0.6-0.4-0.9-0.7c-0.1,0-0.3-0.1-0.5-0.1c-0.6-0.7-1.2-1.4-1.8-2
	c-0.1,0.3-0.2,0.6-0.3,0.9c-0.1,0.4-0.3,0.9-0.6,1.3c-0.3,0.4-0.7,0.8-1.2,1c-0.7,0.3-1.4,0.5-2.2,0.4c-0.4-0.1-0.8-0.2-1.1-0.4
	l-2.2-0.9c-0.7-0.3-1.5-0.6-2.1-0.9l0.5,1c-1.8,0.6-3.8,1.2-3-2.1c-2-0.7-4-1.3-6-1.7c-2.9-0.5-5.9-0.8-8.8-0.8l0,0
	c-4.3,0.2-8.5,0.9-12.6,1.9h0.1l-0.8,0.3c0.3,0.2,0.7,0.6,1.4,1l0.3-0.3l1,1.2c-0.2,0.2-0.5,0.6-0.6,0.6l0,0
	c-0.4-0.3-0.9-0.6-1.3-0.9l0.1-0.1c-0.4-0.3-1-0.7-1.8-1.2c-0.4,0.1-0.8,0.2-1.3,0.3c-0.1,0-0.1,0-0.2-0.1c-2.7,0.9-5.4,2-7.9,3.4
	c-0.3,0.2-0.6,0.3-0.8,0.5l7.9,3.5l-3.6,3.4l-4.3-6.8c-1.8,1-3.5,2.1-5.1,3.4l0.5,1.2c1.6,0.3,4-1,4.2,2.1c0.2,0.2,0.3,0.3,0.5,0.4
	l0.4-0.4l1,1.2c-0.2,0.2-0.4,0.4-0.6,0.6l0,0c-0.4-0.3-0.9-0.6-1.3-0.9l0.3-0.3c-1.3-0.1-2.5-0.4-3.7-0.9c-0.2-0.2-0.4-0.4-0.5-0.7
	l0,0c-0.1-0.2-0.1-0.3-0.1-0.5s-0.1-0.4-0.1-0.6h-1.9c-0.4,0.3-0.7,0.6-1,0.8c-2.9,2.6-5.5,5.6-7.5,8.9c-2.3,3.9-4.1,8-5.3,12.4
	c-1.4,5.3-2.1,10.8-2,16.3c-0.1,5.6,0.6,11.1,2,16.5c1.2,4.4,3,8.6,5.3,12.5c2,3.3,4.6,6.3,7.5,8.9c2.6,2.3,5.5,4.3,8.6,5.9
	c7.3,3.8,15.3,5.9,23.5,6.2c2.6,0,5.2-0.3,7.8-1c2.2-0.6,4.4-1.3,6.6-2.1c2.1-0.9,4.2-1.9,6.2-3c2.3-1.3,4.5-2.3,6.5-3.1
	c1.6-0.7,3.3-1.1,5-1.2c1.2,0,2.3,0.7,2.9,1.7c1,1.9,1.4,4,1.3,6.2v0.7h1.9v-35.1c0.1-1.1,0.4-2.2,1-3.2c0.6-0.9,1.3-1.6,2.2-2.2
	c1.3-0.7,2.8-1.1,4.3-1V98h-34.3L162.2,99.7z M162.9,48h-12.1C154.6,46.1,159.1,46.1,162.9,48L162.9,48z M131.1,58.8
	c0.3,0.4,0.5,0.9,0.6,1.4c0,0.1,0,0.1-0.1,0.1c-0.1,0.1-0.2,0.2-0.3,0.2c-0.1,0.1-0.3,0.2-0.3,0.3l0,0c-0.1-0.2-0.3-0.5-0.4-0.7
	c-0.1-0.2-0.2-0.5-0.3-0.7C130.4,59.3,130.8,59,131.1,58.8L131.1,58.8z M117.1,120.6l3.8-3.9C122.3,120.2,121.9,121.8,117.1,120.6
	L117.1,120.6z"/>
<linearGradient id="Path_226_00000152977685751700882140000004430182132488364976_" gradientUnits="userSpaceOnUse" x1="180.2012" y1="137.0989" x2="180.2013" y2="137.0988" gradientTransform="matrix(1 0 0 -1 0 184)">
	<stop  offset="1.085909e-02" style="stop-color:#F6FD00"/>
	<stop  offset="0.4748" style="stop-color:#00FF7B"/>
	<stop  offset="1" style="stop-color:#00CEE7"/>
</linearGradient>
<path id="Path_226_00000111191002181311042070000004931887995186867600_" style="fill:url(#Path_226_00000152977685751700882140000004430182132488364976_);" d="
	M180.5,46.6L180.5,46.6l-0.6,0.6L180.5,46.6z"/>
<linearGradient id="Path_227_00000162341856019642900010000007592625528469364670_" gradientUnits="userSpaceOnUse" x1="280.0673" y1="130.9312" x2="280.0674" y2="130.9311" gradientTransform="matrix(1 0 0 -1 0 184)">
	<stop  offset="1.085909e-02" style="stop-color:#F6FD00"/>
	<stop  offset="0.4748" style="stop-color:#00FF7B"/>
	<stop  offset="1" style="stop-color:#00CEE7"/>
</linearGradient>
<path id="Path_227_00000050650331603073033290000010867188029875505828_" style="fill:url(#Path_227_00000162341856019642900010000007592625528469364670_);" d="
	M279.9,53.2l0.3-0.3L279.9,53.2z"/>
<linearGradient id="Path_228_00000050660021699463429680000000042714434286469310_" gradientUnits="userSpaceOnUse" x1="200.2" y1="138.2" x2="294.5999" y2="43.8" gradientTransform="matrix(1 0 0 -1 0 184)">
	<stop  offset="1.085909e-02" style="stop-color:#F6FD00"/>
	<stop  offset="0.4748" style="stop-color:#00FF7B"/>
	<stop  offset="1" style="stop-color:#00CEE7"/>
</linearGradient>
<path id="Path_228_00000152255542071958498810000008859560585141122749_" style="fill:url(#Path_228_00000050660021699463429680000000042714434286469310_);" d="
	M258.6,46.4c1.5-0.1,3,0.3,4.2,1.2c0.9,0.8,1.6,1.7,2.2,2.7c0.5,1.3,0.9,2.7,1,4l0.4,16L266,86h-37.4V54.4c0.1-1.4,0.4-2.8,0.9-4.1
	c0.5-1.1,1.2-2,2.1-2.7c1.2-0.9,2.7-1.3,4.2-1.2c-0.2-0.6-0.4-1.1-0.6-1.5h-26.5c0.2,1.3-1.3-0.5-1,1.6c-2.6-2.6-1.9-0.3-2.9-1.4
	L205,45h-4v1.5c1.5-0.1,3,0.3,4.2,1.2c0.9,0.8,1.6,1.7,2.2,2.7c0.1,0.1,0.1,0.3,0.2,0.5c0.1-0.1,0.3-0.3,0.4-0.4l0.7,1.3l-0.6,0.6
	c0.2,0.6,0.3,1.3,0.4,1.9l1.6,33.9l-0.7,19.2l0.4-0.2c0.2-0.1,0.5-0.2,0.7-0.3c0.1,0,0.3,0.2,0.5,0.4c0.1,0.1,0.1,0.1,0.2,0.2
	l-1.3,0.7l-0.4-0.4l-0.9,23.8c-0.1,1.4-0.5,2.8-1,4.1c-0.5,1.1-1.3,2-2.2,2.8c-1.2,0.9-2.7,1.3-4.2,1.2v1.5H236v-1.5
	c-1.5,0.1-3-0.3-4.3-1.2c-0.9-0.7-1.6-1.6-2.1-2.7c-0.5-1.3-0.8-2.7-0.9-4V129c-0.3-0.2-0.6-0.4-0.9-0.7l0.2-0.2
	c-0.3-0.2-0.7-0.4-1.1-0.7l0,0l-1-1.3c0.4-0.1,1.2-0.5,1.3-0.3c0.3,0.5,0.5,1,0.6,1.6h-0.3l0.8,0.5l0.4-0.4v-4.7
	c-0.3-0.2-0.6-0.4-0.9-0.7l0.2-0.2c-0.3-0.2-0.7-0.4-1.1-0.7l0,0l-1-1.3c0.4-0.1,1.2-0.5,1.3-0.3c0.3,0.5,0.5,1,0.6,1.6h-0.3
	l0.8,0.5l0.4-0.4V93h37.4v38.6c-0.1,1.4-0.5,2.8-1,4.1c-0.5,1.1-1.3,2-2.2,2.8c-1.2,0.9-2.7,1.3-4.2,1.2v1.1l0.1,0.4h34.8v-1.5
	c-1.5,0.1-3-0.3-4.3-1.2c-0.9-0.7-1.6-1.6-2.1-2.7c-0.5-1.3-0.8-2.7-0.9-4l-2.4-8.8l2.3-68.7c0-1.4,0.3-2.8,0.9-4.1
	c0.5-1.1,1.2-2,2.2-2.7c1.3-0.9,2.8-1.3,4.3-1.2v-1.5h-34.8L258.6,46.4z M210.4,112.1c-0.1,0.2-0.3,0.5-0.4,0.7l-0.7-0.7l0.7-1.3
	c0.2,0.2,0.7,0.5,0.6,0.7C210.6,111.7,210.5,111.9,210.4,112.1L210.4,112.1z M214.2,46.3c0.2,0.2,0.7,0.5,0.6,0.7
	c-0.2,0.5-0.4,1-0.6,1.4l-0.7-0.7L214.2,46.3z M213.4,65.1c-1.3,0.4,0.4,2,0.1,2c-1.6-0.4-1,1.1-1.3-2.3c0-0.6-3-1.2-2.6-1.4
	c2.4-1.3,3.5,0.9,4.9,2.1C214.8,65.6,212.9,64.4,213.4,65.1L213.4,65.1z M213.9,54.3l-0.7-0.7l0,0c0.2-0.1,0.5-0.3,0.7-0.4
	c0.2-0.1,0.5-0.2,0.7-0.3c0.2,0,0.5,0.4,0.7,0.6L213.9,54.3z M218.6,100c-0.5-0.5-1-1.1-1.3-1.8c-0.1-0.5,0.4-1.1,0.6-1.7l1.8,0.8
	L218.6,100z M222.5,87.9l-0.7-0.7l0.7-1.3l0.2,0.2c0.2,0.2,0.5,0.4,0.4,0.5C223,87,222.8,87.4,222.5,87.9L222.5,87.9z M226.6,83.7
	l-0.7-1.3l0.7-0.7c0.3,0.4,0.5,0.9,0.6,1.4C227.4,83.2,226.9,83.5,226.6,83.7L226.6,83.7z M241.8,92c-0.8-0.5-1.6-0.8-1.6-1
	c0.1-0.9,0.3-1.8,0.6-2.7c0.5,0.3,1.3,0.5,1.3,0.8C242.1,90,242,91,241.8,92L241.8,92z M277.8,51.3c0.3-0.1,0.8-0.3,1.1-0.4
	c0.1,0,0.2,0,0.2,0c0.3,0.5,0.5,1,0.6,1.6h-0.3l0.8,0.5l0.5-0.5l1,1.2c-0.2,0.2-0.4,0.4-0.6,0.6l0,0c-0.2-0.1-0.4-0.3-0.6-0.4
	l-0.6-0.5l0,0l0.2-0.2c-0.3-0.2-0.7-0.4-1.1-0.7l0,0L277.8,51.3L277.8,51.3z M278.7,129.5c0.9,0.1,1.8,0.3,2.7,0.6
	c-0.3,0.5-0.5,1.3-0.8,1.3c-1,0-2-0.1-3-0.4C278.2,130.4,278.5,129.5,278.7,129.5L278.7,129.5z"/>
<linearGradient id="Path_229_00000046324465491725808100000017574094935095204770_" gradientUnits="userSpaceOnUse" x1="235.5655" y1="139.1345" x2="236.0573" y2="138.6427" gradientTransform="matrix(1 0 0 -1 0 184)">
	<stop  offset="1.085909e-02" style="stop-color:#F6FD00"/>
	<stop  offset="0.4748" style="stop-color:#00FF7B"/>
	<stop  offset="1" style="stop-color:#00CEE7"/>
</linearGradient>
<path id="Path_229_00000079480368840425311380000018029231342439304622_" style="fill:url(#Path_229_00000046324465491725808100000017574094935095204770_);" d="
	M235.5,44.9c0.1,0.2,0.2,0.4,0.4,0.6v-0.6H235.5z"/>
<linearGradient id="Path_230_00000098905516956854571530000015473522054784303039_" gradientUnits="userSpaceOnUse" x1="300.7" y1="138.8" x2="300.7" y2="138.8" gradientTransform="matrix(1 0 0 -1 0 184)">
	<stop  offset="1.085909e-02" style="stop-color:#F6FD00"/>
	<stop  offset="0.4748" style="stop-color:#00FF7B"/>
	<stop  offset="1" style="stop-color:#00CEE7"/>
</linearGradient>
<path id="Path_230_00000044878519046002271680000018063770228303690929_" style="fill:url(#Path_230_00000098905516956854571530000015473522054784303039_);" d="
	M300.7,45.2L300.7,45.2L300.7,45.2z"/>
<linearGradient id="Path_232_00000075876275523944392460000009632855403960914875_" gradientUnits="userSpaceOnUse" x1="299.525" y1="142.725" x2="377.825" y2="64.425" gradientTransform="matrix(1 0 0 -1 0 184)">
	<stop  offset="1.085909e-02" style="stop-color:#F6FD00"/>
	<stop  offset="0.4748" style="stop-color:#00FF7B"/>
	<stop  offset="1" style="stop-color:#00CEE7"/>
</linearGradient>
<path id="Path_232_00000068665692398738462380000007088975846391587968_" style="fill:url(#Path_232_00000075876275523944392460000009632855403960914875_);" d="
	M305.6,45.8l0.2-0.6H301c-0.1,0.2-0.2,0.3-0.3,0.5l0,0l-1,0.8c-0.1-0.4-0.4-1-0.3-1c0.2-0.1,0.4-0.2,0.6-0.3h-4.4v6.1l0.1,0.7v27.8
	h1.5c0.1-4.7,0.9-9.4,2.5-13.9c0.6-1.7,1.4-3.4,2.4-5s2.2-3.1,3.6-4.4c1.5-1.3,3.2-2.4,5-3.1c2.1-0.8,4.4-1.2,6.6-1.2h9.8l0.2-0.4
	c0.1,0.1,0.2,0.2,0.4,0.3c0.1,0,0.1,0.1,0.1,0.1h0.9l-0.5,11l0.5,69.2c-0.1,1.3-0.5,2.6-1,3.8c-0.6,1-1.3,1.8-2.2,2.5
	c-1.3,0.8-2.7,1.2-4.2,1.1v1.5h34.8v-1.5c-1.5,0.1-3-0.3-4.3-1.1c-0.9-0.6-1.6-1.4-2.1-2.4c-0.4-0.9-0.7-1.9-0.8-2.9l-0.1-0.2
	l0.1-0.1c0-0.2-0.1-0.4-0.1-0.6V52.3h10.7c2.3,0,4.7,0.3,6.8,1.2c1.9,0.7,3.6,1.8,5.1,3.1c0.6,0.6,1.2,1.2,1.8,1.8v-0.1l-0.4-0.4
	l1-0.8c0.2,0.2,0.4,0.3,0.5,0.5l0,0c-0.2,0.4-0.5,0.7-0.8,1l-0.2-0.2v0.1c0.6,0.7,1.2,1.5,1.6,2.3c0.9,1.6,1.8,3.3,2.5,5
	c1.7,4.5,2.6,9.1,2.7,13.9h1.5V45.1h-75.7C306.1,45.4,305.9,45.6,305.6,45.8z M379,58.8l-0.2-0.2c-0.2,0.3-0.4,0.5-0.6,1l0,0l-1,0.8
	c-0.1-0.4-0.4-1-0.3-1c0.4-0.2,0.8-0.4,1.3-0.5V59c0.1-0.2,0.2-0.4,0.4-0.6l-0.4-0.4l1-0.8c0.2,0.2,0.4,0.3,0.5,0.5l0,0
	C379.6,58.1,379.3,58.4,379,58.8z M380.6,50.7l-5.2,3.8C376.7,50.9,376.7,50.9,380.6,50.7z M344.2,117.6l0.6-2.3
	c0.1,0.2,0.1,0.4,0.2,0.6c0.2,0,0.4-0.1,0.7-0.1c0.3-0.5-0.1-0.5-0.4-0.4c0.3-0.3,0.7-0.6,1.1-0.9c0.1-0.1,0.5,0.2,1.1,0.6
	c-0.6,0.3-1.2,0.5-1.8,0.8c-0.2,0.2-0.3,0.5-0.5,0.7c0,0.1,0,0.1,0,0.2S344.9,116.9,344.2,117.6L344.2,117.6z M345.7,121.7
	c-0.1-0.2-0.2-0.5-0.2-0.6c0.2-0.1,0.5-0.2,0.7-0.3l0,0c0.2-0.2,0.4-0.3,0.5-0.5c0.2-0.2,0.4-0.3,0.6-0.4c0.1-0.1,0.5,0.2,1.1,0.6
	C347.5,120.8,346.5,121.2,345.7,121.7z M348.1,130.6l-0.3,0.3l-0.6-0.3c0.1-0.1,0.2-0.3,0.3-0.3
	C347.6,130.4,347.9,130.4,348.1,130.6z M346,125.5c0.1,0.4,0.1,0.9,0.2,1.3c0,0.1-0.4,0.2-0.6,0.4c-0.1-0.4-0.2-0.8-0.3-1.2
	C345.3,125.9,345.7,125.7,346,125.5L346,125.5z M347.1,139.9L347,140c-0.1,0.1-0.3,0.2-0.5,0.2c-0.1,0-0.2-0.2-0.3-0.3l0.6-0.3
	L347.1,139.9L347.1,139.9z M346.6,134.8l-1.2-1.6l3.3-0.5L346.6,134.8z M346.5,46.8c0.8,0,1.6,0.1,2.5,0.3c-0.4,0.6-0.6,1.3-0.9,1.3
	c-0.8-0.1-1.5-0.3-2.3-0.5C346,47.5,346.2,46.8,346.5,46.8L346.5,46.8z M346.2,112.3c-0.4,0.1-0.9,0.1-1.3,0.2
	c-0.1,0-0.2-0.4-0.4-0.6c0.4-0.1,0.8-0.2,1.2-0.3C345.8,111.6,346,111.9,346.2,112.3L346.2,112.3z M344.5,109.1
	c0-0.1,0.2-0.2,0.3-0.3l0.3,0.6l-0.3,0.3l0,0l-0.1-0.1C344.7,109.4,344.6,109.2,344.5,109.1L344.5,109.1z M343.8,63.1
	c0.1-0.1,0.3-0.4,0.4-0.5h0.1c0.4,0.1,0.8,0.3,1.2,0.5l-0.6,0.6L343.8,63.1L343.8,63.1z M342.4,116.5L342.4,116.5
	c-0.1,0.2-0.3,0.4-0.4,0.6l-0.1-0.1c-0.1,0.1-0.2,0.3-0.3,0.5l0,0l-0.6,0.4c-0.1-0.2-0.2-0.5-0.2-0.6c0.2-0.1,0.5-0.2,0.7-0.3v0.1
	l0.2-0.4l-0.2-0.2l0.5-0.4C342.2,116.3,342.3,116.4,342.4,116.5L342.4,116.5z M340.7,78.3c0-0.1,0.3-0.4,0.5-0.6l0.6,1.1l-0.6,0.6
	C341,79.1,340.8,78.7,340.7,78.3L340.7,78.3z M341.5,59.1c0.1,0,0.4,0.3,0.6,0.5l-1.1,0.6l-0.6-0.6
	C340.7,59.4,341.1,59.2,341.5,59.1L341.5,59.1z M338.5,123.7l0.3,0.3l0,0l-0.3,0.2c-0.1,0.1-0.2,0.1-0.3,0.1c-0.1,0-0.2-0.2-0.3-0.3
	L338.5,123.7z M334.4,74.3c0.8,0,1.6,0.1,2.5,0.3c-0.4,0.6-0.6,1.3-0.9,1.3c-0.8-0.1-1.5-0.3-2.3-0.5C334,75,334.2,74.3,334.4,74.3
	L334.4,74.3z M332.6,125.9c0.1,0.1,0.2,0.2,0.4,0.3c0.1,0.1,0.2,0.2,0.2,0.3c-0.1,0.2-0.1,0.4-0.2,0.6s-0.2,0.4-0.3,0.6L332,127
	L332.6,125.9z M308,52.4c0.4-0.2,0.8-0.4,1.3-0.5l0,0c0.3-0.3,0.6-0.6,1-0.9c0.3-0.3,0.7-0.6,1-0.8c0.2-0.1,0.8,0.4,2.1,1.1
	c-1.8,0.5-3.5,1.2-5.1,2.1C308.2,53.1,307.9,52.5,308,52.4L308,52.4z"/>
<linearGradient id="Path_233_00000132792440800334753830000013650482979025539244_" gradientUnits="userSpaceOnUse" x1="309.499" y1="132.2652" x2="310.1457" y2="131.6185" gradientTransform="matrix(1 0 0 -1 0 184)">
	<stop  offset="1.085909e-02" style="stop-color:#F6FD00"/>
	<stop  offset="0.4748" style="stop-color:#00FF7B"/>
	<stop  offset="1" style="stop-color:#00CEE7"/>
</linearGradient>
<path id="Path_233_00000135653099661095195570000017400664841614335393_" style="fill:url(#Path_233_00000132792440800334753830000013650482979025539244_);" d="
	M309.4,51.9L309.4,51.9v0.8C311.6,51.6,310.5,51.7,309.4,51.9z"/>
<linearGradient id="Path_237_00000047061685724907933640000000554785037532352144_" gradientUnits="userSpaceOnUse" x1="153.8412" y1="139.0088" x2="159.8913" y2="132.9588" gradientTransform="matrix(1 0 0 -1 0 184)">
	<stop  offset="1.085909e-02" style="stop-color:#F6FD00"/>
	<stop  offset="0.4748" style="stop-color:#00FF7B"/>
	<stop  offset="1" style="stop-color:#00CEE7"/>
</linearGradient>
<path id="Path_237_00000170259414585113992520000007280273913633446302_" style="fill:url(#Path_237_00000047061685724907933640000000554785037532352144_);" d="
	M150.8,48h12.1C159.1,46.1,154.6,46.1,150.8,48z"/>
<linearGradient id="Path_238_00000026882838086923815290000010087168005700106113_" gradientUnits="userSpaceOnUse" x1="525.5585" y1="130.5585" x2="592.6584" y2="63.4585" gradientTransform="matrix(1 0 0 -1 0 184)">
	<stop  offset="1.085909e-02" style="stop-color:#F6FD00"/>
	<stop  offset="0.4748" style="stop-color:#00FF7B"/>
	<stop  offset="1" style="stop-color:#00CEE7"/>
</linearGradient>
<path id="Path_238_00000178191372095257630650000010139987673387944125_" style="fill:url(#Path_238_00000026882838086923815290000010087168005700106113_);" d="
	M611.3,64.4c-0.8-2.5-1.9-5-3.4-7.2l0,0c-1.3-2-2.9-3.7-4.8-5.2c-1.7-1.3-3.5-2.5-5.4-3.5c-4.7-2.2-9.7-3.4-14.8-3.6h-48.8v1.5
	c2.4-0.1,4.9,0.4,7.2,1.3c0.9,0.7,1.7,1.7,2.2,2.8c0.5,1.3,0.8,2.7,0.9,4l0.4,9.6c0.1-0.2,0.3-0.4,0.5-0.7c-0.1-0.2-0.1-0.4-0.1-0.6
	c0-0.1,0.3-0.3,1-0.9l-0.6,2.2c0-0.1-0.1-0.2-0.1-0.3c-0.1,0.1-0.2,0.3-0.5,0.6l0.2,0.2l-0.3,0.2l0.5,11.6c0.3,0.1,0.7,0.2,1,0.3
	l-1,0.5l0.2,4.5c1-1.2,2.4-1.9,3.9-2c-1.5,1.4-2.2,2.7-3.8,2.9l0.3,6l0.1,0.1H546l0,2.3l-0.1,3.2l0.9,1.2l-0.9,0.1l-1.5,36.2
	c-0.1,1.4-0.4,2.8-0.9,4.1c-0.5,1.1-1.2,2-2.2,2.7c-2.3,0.8-4.7,1.3-7.2,1.2v1.5H572v-1.5c-1.5,0.1-3.1-0.3-4.3-1.2
	c-0.4-0.3-0.7-0.6-1-0.9l-0.2-0.1h0.1c-0.5-0.5-0.8-1.1-1.1-1.7c-0.1-0.1-0.1-0.3-0.2-0.4c-0.2-0.3-0.4-0.6-0.6-0.9
	c-0.1-0.1,0-0.3,0.2-0.5c-0.2-0.7-0.2-1.5-0.2-2.2v-29h18.4c5.1-0.2,10.2-1.4,14.8-3.6c1.9-1,3.7-2.1,5.4-3.5
	c1.8-1.5,3.4-3.2,4.8-5.2c1.5-2.2,2.6-4.6,3.4-7.2C613.1,77.2,613.1,70.6,611.3,64.4L611.3,64.4z M551.1,60.5l-0.3-0.6l0.3-0.3
	c0.1,0.2,0.2,0.4,0.3,0.6C551.4,60.2,551.2,60.4,551.1,60.5L551.1,60.5z M554.8,137.9c-0.2,0.1-0.4,0.2-0.6,0.2
	c-0.2,0-0.4-0.4-0.6-0.6l1.2-0.6l0.6,0.6C555.2,137.7,555,137.8,554.8,137.9L554.8,137.9z M558.8,52.1l-1,0.1l-0.7-4.9l1.6-0.1v4.9
	H558.8z M559.7,138.2c-0.3-0.8-0.5-1.6-0.6-2.4c0-0.2,0.7-0.5,1.4-0.9c0.2,0.9,0.3,1.7,0.3,2.6C560.8,137.8,560.1,138,559.7,138.2
	L559.7,138.2z M585.6,101.9c-0.1-0.2-0.2-0.4-0.3-0.6s-0.2-0.4-0.2-0.6s0.4-0.4,0.6-0.6l0.6,1.2L585.6,101.9z M589.3,98.2l-0.2-0.2
	c-0.2-0.2-0.4-0.3-0.4-0.4c0.1-0.4,0.3-0.9,0.6-1.3l0.6,0.6L589.3,98.2z M593.2,88.8l-1.6-0.7l1-2.4c0.5,0.5,0.9,1,1.1,1.6
	C593.9,87.7,593.4,88.3,593.2,88.8L593.2,88.8z M592.1,85.8L592.1,85.8c-0.8,2.7-2.1,5.3-3.9,7.5c-1.3,1.6-3.1,2.7-5.1,3l-9.8-0.9
	c-0.1,0.2-0.1,0.5-0.2,0.7c-0.4-0.2-1.1-0.4-1.1-0.7v-0.1l-7.4-0.6v-43H583c2.1,0.3,3.9,1.4,5.2,3c1.7,2.2,3,4.8,3.9,7.5
	C594.4,69.8,594.4,78.1,592.1,85.8L592.1,85.8z M600.3,74.4l0.6,0.6l-0.6,1.2c-0.2-0.2-0.6-0.5-0.6-0.6
	C599.8,75.2,600,74.8,600.3,74.4L600.3,74.4z M601.2,79c-0.4,0.2-0.8,0.4-1.3,0.6c-0.1,0-0.3-0.2-0.4-0.4c-0.1-0.1-0.1-0.1-0.2-0.2
	l1.2-0.6L601.2,79L601.2,79z M602.1,89c-0.2-0.2-0.6-0.5-0.6-0.6c0.1-0.4,0.3-0.9,0.6-1.3l0.6,0.6L602.1,89z M603.3,79.5v-4.9l1-0.1
	l0.7,4.9L603.3,79.5z"/>
<linearGradient id="Path_239_00000181779135489496107760000005172676751042581141_" gradientUnits="userSpaceOnUse" x1="611.55" y1="137.15" x2="753.25" y2="-4.55" gradientTransform="matrix(1 0 0 -1 0 184)">
	<stop  offset="1.085909e-02" style="stop-color:#F6FD00"/>
	<stop  offset="0.4748" style="stop-color:#00FF7B"/>
	<stop  offset="1" style="stop-color:#00CEE7"/>
</linearGradient>
<path id="Path_239_00000055697476752551068470000008059572484637025426_" style="fill:url(#Path_239_00000181779135489496107760000005172676751042581141_);" d="
	M757.5,177.6c-1.1-0.8-2-1.7-2.9-2.7c-1-1.2-1.8-2.5-2.3-4l-40-102.1c-0.4,0.1-0.8,0.2-1.3,0.3c0-0.4-0.1-1.1,0.1-1.3
	c0.2-0.1,0.5-0.2,0.7-0.3L703,45l-0.2-0.5H689l-0.6-1.2l-0.5,1.2h-0.3l-8.8,22.8c1.1-0.3,2.2-0.2,3.2,0.2l-3.4,3.4
	c-0.2-0.6-0.4-1.3-0.5-1.9l-17.5,45.6l-6.5,16.8c-0.6,1.3-1.3,2.6-2.1,3.8c-0.9,1.2-1.9,2.3-3.1,3.2c-0.8,0.6-1.7,1-2.6,1.2
	c-1.2,0-2.3-0.4-3.3-1.1c-0.9-0.7-1.6-1.6-2.1-2.7c-0.5-1.3-0.8-2.7-0.9-4l-1.3-6.6l0.5-14.3l-0.3-0.3l0.3-0.3l0.1-4
	c-0.5-1.2-0.5-2.6,0.1-3.8v-1c-0.2,0.2-0.6,0.2-1.6-0.2l1.5-0.8c0,0.1,0.1,0.2,0.1,0.3l0.5-14l-1.5,1.5l-0.9-1.2l2.4-0.4l0.8-23.4
	l-0.2,0.1c0-0.2-0.2-0.4-0.1-0.4c0.1-0.1,0.2-0.1,0.3-0.1l0.3-8.5c0.1-1.4,0.4-2.8,0.9-4.1c0.5-1.1,1.2-2,2.1-2.7
	c1.2-0.9,2.8-1.3,4.3-1.2v-1.5h-34.8v1.5c1.5-0.1,3,0.3,4.2,1.2c0.9,0.8,1.6,1.7,2.2,2.7c0.5,1.3,0.9,2.7,1,4l-0.1,15.5l-1,61.9
	c-0.1,1.4-0.5,2.8-1,4.1c-0.5,1.1-1.3,2-2.2,2.8c-1.2,0.9-2.7,1.3-4.2,1.2v1.5h19.7c-0.8-0.8-1.5-1.5-2.2-2.2
	c0.7-0.1,1.3-0.3,1.9-0.6c0.4,0.9,0.6,1.8,0.7,2.8h17.7v0.1l16.2-0.1v-1.5c-2,0.2-4.1-0.3-5.9-1.3c-0.5-0.3-0.9-0.7-1.3-1.1
	l11.5-29.3h21.6l2.6-1.9l-0.6,1.9H706l20,51.2l3.5,1.3l-1.8,3.1l3,7.6c0.5,1.3,0.7,2.6,0.5,4c-0.2,2.3-2.3,3.9-4.5,3.7
	c-0.1,0-0.3,0-0.4-0.1v0.7l0,0v0.7h35.2v-1.5C760,178.8,758.7,178.4,757.5,177.6z M638.7,110.9c0.1,0.3,0.2,0.7,0.3,1
	c0,0.1-0.3,0.2-0.8,0.7L638.7,110.9z M639.7,96.4c-0.1,0.1-0.2,0.3-0.3,0.4l-0.3-0.3l0.4-0.3C639.5,96.2,639.7,96.4,639.7,96.4z
	 M638.8,92l0.3,0.3c-0.1,0.1-0.3,0.2-0.5,0.2c-0.1,0-0.2-0.1-0.2-0.2L638.8,92z M637.9,82.6c-0.1-0.3-0.2-0.6-0.2-0.9
	c0-0.1,0.3-0.2,0.5-0.4c0.1,0.3,0.1,0.7,0.1,1C638.3,82.4,638,82.5,637.9,82.6L637.9,82.6z M639.5,85.4l-0.5-0.3
	c0.1-0.1,0.2-0.2,0.2-0.2c0.2,0.1,0.3,0.1,0.5,0.2L639.5,85.4z M638.3,77.7V78l-0.4,0.3c0-0.2-0.2-0.4-0.1-0.4
	C638,77.8,638.1,77.8,638.3,77.7c0.3-0.3,0.5-0.5,0.8-0.7c0.1-0.1,0.3,0.2,0.8,0.4L638.3,77.7z M639.3,73.2l-1.7,0.2
	c0.3-0.3,0.5-0.5,0.8-0.7C638.6,72.7,638.8,73,639.3,73.2L639.3,73.2z M637.3,68.5l0.3,0.5l-0.3,0.3c-0.1-0.1-0.2-0.3-0.2-0.5
	C637,68.7,637.2,68.6,637.3,68.5L637.3,68.5z M638,70.7c0.1,0,0.2,0.3,0.4,0.5c-0.3,0.1-0.7,0.1-1,0.1c-0.1,0-0.2-0.3-0.3-0.4
	C637.3,70.8,637.6,70.7,638,70.7L638,70.7z M637.3,73.5c0.1,0.3,0.2,0.7,0.3,1c0,0.1-0.3,0.2-0.8,0.8L637.3,73.5z M634.4,114.5
	c-0.1-0.1-0.2-0.3-0.2-0.5c0-0.1,0.1-0.2,0.2-0.2l0.3,0.5L634.4,114.5z M634.4,75.5c0-0.2-0.2-0.4-0.1-0.4c0.2-0.1,0.3-0.2,0.5-0.2
	v0.3L634.4,75.5z M635.1,74.9l-0.3-0.3l0.4-0.3c0.1,0.1,0.2,0.2,0.2,0.2C635.3,74.6,635.2,74.8,635.1,74.9L635.1,74.9z M639.4,96.9
	c-1.1,0.8-1.6,2-3.7,2.2C637.1,97.8,637.5,96.6,639.4,96.9L639.4,96.9z M638.6,135.6l-2-3.9C638.5,130.9,640.7,130.3,638.6,135.6
	L638.6,135.6z M701.2,83.8l0.6,0.6l0,0c-0.2,0.1-0.3,0.2-0.5,0.3c-0.2,0.1-0.5,0.2-0.7,0.3c-0.1,0-0.3-0.2-0.4-0.4l-0.2-0.2
	L701.2,83.8z M696.9,81L696.9,81c0.1,0,0.3,0.1,0.4,0.1s0.3,0.1,0.3,0.2c0.1,0.4,0.1,0.8,0.1,1.3l-0.8-0.3
	C696.8,81.7,696.9,81.3,696.9,81L696.9,81z M674.9,80.8c0.3-0.8,0.6-1.6,1-2.4c0.1-0.2,0.9,0,2.3,0c-0.7,0.9-1.4,1.8-2.2,2.7
	c0,0.5-0.1,1-0.2,1.6c0.1,0.1,0.1,0.1,0.2,0.2c0.1,0.2-0.3,0.8-0.9,2.5l-0.9-4.3c0.3,0.3,0.6,0.5,0.8,0.8c0.4-0.2,0.7-0.5,0.9-0.8
	C676,80,675.5,80.4,674.9,80.8L674.9,80.8z M671.4,101.1c-0.1,0.2-0.3,0.3-0.4,0.5c-0.1,0.1-0.5-0.1-0.7-0.2l0.7-1l0.8,0.3
	C671.6,100.7,671.5,100.9,671.4,101.1L671.4,101.1z M692,104.1h-1.3c0.1-0.3,0.1-0.7,0.3-0.7c0.4-0.1,0.8-0.1,1.3-0.1L692,104.1z
	 M695.4,101.4c-0.1-0.1,0.1-0.5,0.2-0.7l1,0.7l-0.3,0.8c-0.2-0.1-0.4-0.2-0.5-0.4C695.7,101.7,695.5,101.5,695.4,101.4L695.4,101.4z
	 M697.6,106.3c-0.1,0.2-0.2,0.4-0.4,0.5c-0.1,0.2-0.3,0.3-0.4,0.5c-0.1,0.1-0.5-0.1-0.7-0.2l0.7-1L697.6,106.3L697.6,106.3z
	 M685.4,99.9L685.4,99.9L685.4,99.9l-11.7-0.7l5.3-12.9c-0.2-0.1-0.5-0.1-0.7-0.2l0.8-0.1l9.2-22.6l8.5,21.5
	c0.5,0.2,1.1,0.4,1.5,0.5l-0.6,1.8l5.4,13.7L685.4,99.9z M706.2,100.9c-0.4,0.3-1,0.3-1.5,0.1c-1.9-1.3-0.6-2.8-0.3-4.3
	c0.1-0.4,0.3-0.7,0.5-1.1c0.8,0.8,1.1,1,1.1,1.2C706.3,98.1,708.5,99.4,706.2,100.9L706.2,100.9z M711.7,81.9
	c0.1-0.2,0.2-0.4,0.4-0.5c0.1-0.2,0.3-0.3,0.4-0.5c0.1-0.1,0.5,0.1,0.7,0.2l-0.7,1L711.7,81.9z M715.2,98.1
	c-0.7,0.3-1.5,0.4-2.2,0.6c0-0.4-0.1-1.1,0.1-1.3c0.7-0.4,1.5-0.6,2.3-0.8C715.3,97.3,715.4,98,715.2,98.1L715.2,98.1z M717.5,83.4
	h-1.3c0-0.1,0.1-0.3,0.1-0.4s0.1-0.3,0.2-0.3c0.4-0.1,0.8-0.1,1.3-0.1L717.5,83.4z M721.3,98.8c-0.4-0.2-0.7-0.5-1-0.8
	c-0.1-0.1,0.1-0.5,0.2-0.7l1,0.7L721.3,98.8z M731.5,158.6c0.1,0,0.2,0,0.3,0s0.3,0.1,0.4,0.2l0,0c-0.2,0.4-0.5,0.7-0.8,1
	c-0.1,0.1-0.5-0.1-0.7-0.2C730.9,159.2,731.2,158.9,731.5,158.6L731.5,158.6z M734.3,172.7c-2.9-3.4-3.5-3.5-4.1-3.7l1-1.1
	c-0.4-1.3-2.2-2.5,0-3.8c0.1-0.2,0.1-0.4,0.1-0.5l-0.5-0.2l0.5-1.2c0.2,0.1,0.5,0.1,0.7,0.2l0,0c0,0.4-0.1,0.8-0.2,1.3l-0.3-0.1
	c0.4,1,0.6,2,0.7,3c0,0.4-0.3,0.8-1,1.3l0.8,1.5c0.8,0.3,1.6,0.6,2.4,1C734.6,170.6,734.4,171.3,734.3,172.7L734.3,172.7z
	 M735.5,144.8l-0.8-0.3c0-0.4,0-0.8,0-1.3l0.2,0.1c0.2,0.1,0.5,0.1,0.5,0.2C735.5,143.9,735.5,144.3,735.5,144.8L735.5,144.8z"/>
<linearGradient id="Path_241_00000004540728161127754120000001788702971654931641_" gradientUnits="userSpaceOnUse" x1="489.0641" y1="172.0359" x2="489.2706" y2="171.8294" gradientTransform="matrix(1 0 0 -1 0 184)">
	<stop  offset="1.085909e-02" style="stop-color:#F6FD00"/>
	<stop  offset="0.4748" style="stop-color:#00FF7B"/>
	<stop  offset="1" style="stop-color:#00CEE7"/>
</linearGradient>
<path id="Path_241_00000174575929369083709760000010496078539474529982_" style="fill:url(#Path_241_00000004540728161127754120000001788702971654931641_);" d="
	M489,12L489,12l0.3,0.1L489,12z"/>
<linearGradient id="Path_242_00000124875617195826265320000009522115434987904946_" gradientUnits="userSpaceOnUse" x1="410.3396" y1="159.2936" x2="506.6396" y2="62.9935" gradientTransform="matrix(1 0 0 -1 0 184)">
	<stop  offset="1.085909e-02" style="stop-color:#F6FD00"/>
	<stop  offset="0.4748" style="stop-color:#00FF7B"/>
	<stop  offset="1" style="stop-color:#00CEE7"/>
</linearGradient>
<path id="Path_242_00000124140533815354762560000007567017614787220894_" style="fill:url(#Path_242_00000124875617195826265320000009522115434987904946_);" d="
	M521.1,100.1c0.1-0.1,0.2-0.1,0.2-0.2c9.2-21.5,6.7-46.2-6.5-65.4l-0.5,0.2c-0.2,0.3-0.4,0.5-0.5,0.7c0.2,0.5,0.3,1,0.4,1.5
	c0,0.2-0.6,0.5-1.7,1.6l1.1-3.8c0.1,0.2,0.1,0.4,0.2,0.6c0.2-0.5,0.3-1,0.5-1.5l-0.3-0.5l-0.3-0.1l0,0l-0.7-0.9l0.2-0.1
	c-6.2-8.3-14.2-15-23.2-19.7c-0.7,0-0.8,0.1-1,0.1c0-0.2,0-0.4,0-0.6c-0.3-0.2-0.8-0.2-1-0.5c-0.4-0.2-0.9-0.4-1.3-0.6l0.4,2l-2-2
	l0.9-0.4c-7.3-3.2-15.1-5.1-23-5.6l0.2,0.5l-1.4,0.4l0.2-1c-1.1-0.1-2.3-0.1-3.4-0.1c-27,0-51.4,15.9-62.4,40.6
	c0.2-0.1,0.4-0.1,0.4-0.1c0.2,0.4,0.4,0.8,0.5,1.3l1.4,1.2l-1.4,0.6c-0.2,0.3-0.4,0.6-0.5,0.7c0.2,0.5,0.4,1.1,0.5,1.7
	c0,0.2-0.6,0.6-1.9,1.8l1.2-4.2c0.1,0.2,0.1,0.4,0.2,0.6c0.3-0.7,0.5-1.4,0.6-2.1c-0.2-0.1-0.5-0.2-0.8-0.3l0,0l-0.5-0.6
	c-13.5,31.5-1.6,68.1,27.9,85.6h0.8v0.5c15.3,8.8,33.5,11.3,50.6,7c2.4-2.7,1.4,0.1,1.5-2.5c0-0.2,0-0.4,0-0.6c0-0.3,0-0.6,0,0
	s0.2,1.3,0.7-0.4h0.2c0.1,0.3,0.1,0.6,0.1,0.8c0.4-0.4,0.4,0.5-0.2,2c19.5-5.7,35.4-19.8,43.5-38.4L521.1,100.1z M522.2,94.9
	l0.6,0.3c-0.1,0.1-0.2,0.3-0.3,0.3c-0.2-0.1-0.4-0.2-0.6-0.3L522.2,94.9z M502.7,28.4l0.6,0.6l-0.6,1l-0.2-0.1
	c-0.2-0.1-0.4-0.3-0.3-0.4C502.4,29.1,502.5,28.7,502.7,28.4L502.7,28.4z M484.7,17.8c-0.2,0-0.3,0-0.5,0c-0.1,0-0.1-0.2-0.1-0.3
	l0.5-0.1L484.7,17.8z M483,12L483,12c0.1,0.1,0.2,0.3,0.3,0.4h-0.1c0.1,0.1,0.2,0.3,0.4,0.6c0.1,0,0.3,0,0.4,0s0.1,0.3,0.4,0.9
	l-1.3-1h0.3c-0.1-0.2-0.2-0.3-0.3-0.5l-0.1,0.1l-0.2-0.5C482.8,12,482.9,12,483,12L483,12z M480.2,10.1l0.1,0.3l-0.4,0.3
	c0-0.1-0.1-0.2-0.1-0.3C479.9,10.3,480.1,10.2,480.2,10.1L480.2,10.1z M479.6,10.7c-1.3,0.1-2.7-0.4-3.6-1.4L479.6,10.7z
	 M474.4,10.4l-0.2-1.6C475,8.8,475.8,8.8,474.4,10.4L474.4,10.4z M470.6,7.3L470.6,7.3c0.1,0.1,0.1,0.2,0.2,0.3
	c0.1,0,0.1,0.1,0.2,0.1c0.4,1.2,1.3,2,0.7,4c-0.6-1.5-1.4-2.3-0.9-3.6l-0.2-0.2L470.5,8l-0.2-0.5C470.4,7.4,470.5,7.3,470.6,7.3
	L470.6,7.3z M466.7,6.5c0,0.1,0,0.2,0,0.2c0,0.1,0,0.2,0,0.2c0,0.1-0.2,0.1-0.3,0.1l-0.1-0.5L466.7,6.5z M457.9,57.9
	c0.7,0,1.5,0.1,2.2,0.3c-0.4,0.6-0.6,1.2-0.8,1.2c-0.7-0.1-1.4-0.3-2-0.5C457.5,58.5,457.7,57.9,457.9,57.9L457.9,57.9z M454.1,8.1
	c0,0.2,0,0.3,0,0.5c0,0.1-0.2,0.1-0.3,0.1l-0.1-0.5L454.1,8.1z M433.1,17.6l0.6,1l-0.6,0.6l0,0c-0.2-0.3-0.4-0.7-0.5-1
	C432.6,18,433,17.8,433.1,17.6L433.1,17.6z M410,108.8c-0.6-0.1-1.3-0.2-1.9-0.4c0.2-0.3,0.3-0.9,0.5-0.9c0.7,0,1.4,0.1,2,0.2
	C410.4,108.2,410.2,108.8,410,108.8L410,108.8z M411.5,94.3c-1.7-5.4-2.8-10.9-3.1-16.5c10.6-2.9,20.3-8.8,27.6-17l-1.9-2.5l4.7-0.7
	c6.5-6.7,9.9-15.9,9.4-25.2c-0.4-2-2.4-3.3-4.4-2.9c-1.8,0.4-3.1,2.1-2.9,4c2,12.9-18,30.5-32.6,36.3c0.2-6.1,1.3-12.2,3.2-18
	c2.5-5,6.7-13.2,6.7-13.2c2.8-2.6,5.6-5.3,8.1-8.1c2.6-2.4,5.3-4.7,8.1-6.8c-0.4,0.1-0.8,0.1-1.3,0.1c-0.2,0-0.4-0.6-0.6-1
	c0.7-0.2,1.3-0.4,2-0.5c0.1,0,0.3,0.4,0.5,0.8l2.3-1.8c6-2.8,12.5-4.3,19.1-4.5c-0.2,0.3-0.4,0.7-0.5,1.1c-0.1,0.2-0.1,0.5-0.2,0.7
	c0,0.2,0,0.4,0,0.6c0,0.1,0,0.1,0,0.1c0,11.9-1.9,23.8-5.6,35.2c0.3-0.3,0.6-0.6,0.9-0.8s0.5-0.5,0.8-0.7c0.3,1,0.4,1.3,0.4,1.4
	c-0.3,1.3,1,3.2-1.6,3.4c-0.5,0-0.9-0.2-1.3-0.5c-0.1-0.1-0.1-0.2-0.1-0.4c-2.8,7.9-6.9,15.2-12.3,21.7l0.6-0.5
	c0.2,0.1,0.3,0.3,0.5,0.5l0,0c-0.1,0.2-0.3,0.5-0.5,0.7c0,0.1-0.1,0.2-0.1,0.4c-1.9,1.5-3,3.5-6,4.4
	C425.7,89.1,418.8,92.6,411.5,94.3L411.5,94.3z M437,53.9c0.2-0.2,0.4-0.5,0.5-0.5c0.4,0.1,0.7,0.3,1,0.5l-0.6,0.6L437,53.9z
	 M434.8,89.5l3.3-1.7C438.8,89.4,439.3,91.2,434.8,89.5L434.8,89.5z M415,124.3c-0.3,0.1-0.8-0.3-1.2-0.4l0.5-1.3l1.9,0.8
	C415.9,123.8,415.4,124.1,415,124.3L415,124.3z M421.4,130c-0.1-0.2-0.2-0.3-0.3-0.5c-0.1-0.2-0.1-0.3-0.2-0.5
	c0-0.1,0.1-0.1,0.2-0.2c0.1-0.1,0.2-0.2,0.3-0.3l0.5,0.9L421.4,130z M424.9,129.3l-0.5,0.5l-0.9-0.5c0.2-0.2,0.4-0.5,0.5-0.4
	c0.2,0,0.3,0.1,0.5,0.2L424.9,129.3L424.9,129.3z M427,118L427,118l-0.1-0.1c-5.2-4.6-9.5-10.2-12.5-16.5h0.2
	c8.5-1.2,16.7-4.4,23.7-9.3l0,0c3-2.1,5.8-4.4,8.3-7c1.3-1.1,3.2-2.3,4.3-0.6L452,88c0.8,2.5-0.3,5.1-2.6,6.3
	c-3.6,2-6.9,4.4-9.9,7.2h0.1c0.2,0.1,0.3,0.2,0.5,0.3l0,0l-0.6,0.6l-0.6-0.3c-4.7,4.9-8.3,10.8-10.5,17.2
	C428,118.9,427.5,118.5,427,118L427,118z M437.7,110.4L437.7,110.4c-0.3,0.2-0.6,0.7-1,1.2c0.1,0.3,0.2,0.6,0.2,0.9
	c0,0.2-0.6,0.5-1.7,1.6l1.1-3.8c0.1,0.2,0.1,0.4,0.2,0.6c0.2-0.2,0.4-0.5,0.8-1l-0.2-0.2l0.9-0.7c0.2,0.2,0.5,0.4,0.5,0.5l0,0
	C438.2,109.7,437.9,110.1,437.7,110.4L437.7,110.4z M469.9,128.2c-3.7,0.8-7.5,1.2-11.2,1.2c-4.9,0-9.8-0.7-14.6-2.1
	c-0.1,0.2-0.2,0.4-0.4,0.6c-0.1-0.3-0.1-0.5-0.2-0.8c-1.7-0.5-3.3-1.1-4.9-1.8c0.5-2.3,1.2-4.5,2-6.7l-1,0.6l2.6-6l0.7,0.7
	c0.4-0.6,0.8-1.2,1.3-1.7c2.5-3.3,5.7-6,9.3-8.1c3.7-1.3,7.6-1.8,11.6-1.6c8.3,2.1,17.4,1.5,18.4,4.8c0.4,1.3-1.1,2.8-2.4,3.9
	C475.6,115.6,471.6,121.5,469.9,128.2L469.9,128.2z M492.3,126.1l-2.9-2.8C492,122.3,493.2,122.6,492.3,126.1L492.3,126.1z
	 M499.6,109.1l-1.1-0.3l-0.3,0.5c-4.9,7-11.6,12.5-19.4,16c1.6-3.5,4.1-6.5,7.2-8.7c5.2-4.4,5.4-8.4,4.6-10.9
	c-2.3-7.9-17-12.3-25-14.1c-3.3-1.2-5.9-3.8-7.2-7.1l-2.3-6.9c-0.3-1.5-0.3-3,0.1-4.4l3.5-8.9c7,18.8,23.3,32.5,43,36.1
	c-1.3,2.6-2.8,5.5-4,7.9C499,108.4,499.3,108.7,499.6,109.1L499.6,109.1z M463.8,45.2l-0.6-0.6c0.2-0.1,0.3-0.2,0.5-0.3
	s0.3-0.2,0.5-0.2c0.1,0,0.3,0.3,0.5,0.5L463.8,45.2z M464.6,61.9l-0.6,0.6c-0.2-0.3-0.4-0.7-0.5-1c0-0.1,0.3-0.3,0.5-0.5L464.6,61.9
	z M497.6,99c0.2-0.3,0.4-1,0.6-1c0.7,0,1.5,0.1,2.2,0.3c-0.4,0.6-0.6,1.2-0.8,1.2C498.9,99.4,498.2,99.2,497.6,99L497.6,99z
	 M509.1,75.2c-3.5-1.2-30.7-22.6-27.5-37.1c0.3-2-1.1-3.9-3.1-4.3c-1.9-0.3-3.6,0.8-4.2,2.7c-0.9,4.5-0.7,9.1,0.5,13.5l0.1-0.3
	l2,0.8c-0.4,0.4-0.8,0.7-1.3,1c-0.1,0-0.3,0-0.4-0.1c2.3,7.2,6.4,13.8,11.8,19.2c0.1-0.3,0.2-0.5,0.4-0.5c0.7,0,1.5,0.1,2.2,0.3
	c-0.4,0.6-0.6,1.2-0.8,1.2c-0.4,0-0.7-0.1-1-0.2c5,5.1,11.4,8.8,18.3,10.6c0.8,0.2,1.7,0.1,2.5-0.3c-0.5,4.2-1.4,8.4-2.8,12.5
	c-22.2-2.1-33.8-24.1-39-46.3l-0.4-0.2l0,0c0.1-0.1,0.2-0.2,0.3-0.3l0,0c-2.1-9.5-3.3-19.2-3.3-28.9c0-0.2-0.1-0.5-0.1-0.7
	c-0.1-0.4-0.2-0.7-0.4-1C477,17.7,490,25,498.2,36.7l1.1-0.1l-0.8,0.6c7.1,10.6,10.7,23.1,10.5,35.8
	C509.1,73.8,509.1,74.5,509.1,75.2L509.1,75.2z M486.2,59.6l0.1,0.8l-4.1,0.6c0-0.5,0-0.9,0-1.4C482.2,59.6,486.2,59.6,486.2,59.6z
	 M482.1,56.8c0-0.1,0.3-0.3,0.5-0.5l0.6,1l-0.6,0.6c-0.1-0.2-0.2-0.3-0.3-0.5C482.3,57.1,482.2,56.9,482.1,56.8L482.1,56.8z
	 M485.9,57.6l-1-0.6c0.2-0.2,0.4-0.5,0.5-0.5c0.4,0.1,0.7,0.3,1,0.5L485.9,57.6z M512.7,102.6c-0.2,0.1-1.4-0.7-1.4-1.1
	c0.2-1,0.6-1.9,1.1-2.7c1,1.1,1.9,1.7,1.8,2C513.9,101.5,513.4,102.1,512.7,102.6L512.7,102.6z M518,93.8v0.8h-2.5v-0.5L518,93.8z
	 M514.9,88.3l0.4-0.6C515.1,87.9,515,88.3,514.9,88.3L514.9,88.3z M516,96.5c-0.2-0.1-0.4-0.2-0.6-0.3l0.3-0.3l0.6,0.3
	C516.2,96.3,516.1,96.5,516,96.5L516,96.5z M517.7,96.7l-0.3-0.6l0.3-0.3c0.1,0.2,0.2,0.4,0.3,0.6C518,96.4,517.8,96.6,517.7,96.7
	L517.7,96.7z"/>
<linearGradient id="Path_245_00000114793399751139936970000001586286510833144239_" gradientUnits="userSpaceOnUse" x1="397.1449" y1="137.2051" x2="397.2826" y2="137.0674" gradientTransform="matrix(1 0 0 -1 0 184)">
	<stop  offset="1.085909e-02" style="stop-color:#F6FD00"/>
	<stop  offset="0.4748" style="stop-color:#00FF7B"/>
	<stop  offset="1" style="stop-color:#00CEE7"/>
</linearGradient>
<path id="Path_245_00000098192942915778007720000014517162865596395393_" style="fill:url(#Path_245_00000114793399751139936970000001586286510833144239_);" d="
	M397.2,46.7c0,0.1,0,0.2,0,0.3l0,0V46.7z"/>
<linearGradient id="SVGID_1_" gradientUnits="userSpaceOnUse" x1="92.9703" y1="138.9296" x2="95.3116" y2="136.5884" gradientTransform="matrix(1 0 0 -1 0 184)">
	<stop  offset="1.085909e-02" style="stop-color:#F6FD00"/>
	<stop  offset="0.4748" style="stop-color:#00FF7B"/>
	<stop  offset="1" style="stop-color:#00CEE7"/>
</linearGradient>
<path class="st18" d="M91.6,46.6c0.1,0.3,0.2,0.7,0.3,1l0.1-0.1c0.9-0.8,2.4-1.2,4.3-1.2v-1.5h-3.2c0.2,0.1,0.3,0.3,0.5,0.4
	c-0.5,0.2-1,0.4-1.5,0.6C92,46.2,91.8,46.4,91.6,46.6z"/>
<linearGradient id="SVGID_00000033367522522061483560000011214988143923251104_" gradientUnits="userSpaceOnUse" x1="179.6526" y1="139.7973" x2="181.9527" y2="137.4973" gradientTransform="matrix(1 0 0 -1 0 184)">
	<stop  offset="1.085909e-02" style="stop-color:#F6FD00"/>
	<stop  offset="0.4748" style="stop-color:#00FF7B"/>
	<stop  offset="1" style="stop-color:#00CEE7"/>
</linearGradient>
<path style="fill:url(#SVGID_00000033367522522061483560000011214988143923251104_);" d="M180.3,46.5c0.1-0.1,0.2-0.2,0.3-0.3
	c0.2,0.3,0.5,0.6,0.7,0.9l0.3-2.8h-2.1c0.1,0.5,0.1,1.1,0.1,1.7C179.9,46.2,180.1,46.3,180.3,46.5z"/>
<linearGradient id="SVGID_00000107580359358317349170000013370823185691913614_" gradientUnits="userSpaceOnUse" x1="235.25" y1="139.15" x2="235.7287" y2="138.6713" gradientTransform="matrix(1 0 0 -1 0 184)">
	<stop  offset="1.085909e-02" style="stop-color:#F6FD00"/>
	<stop  offset="0.4748" style="stop-color:#00FF7B"/>
	<stop  offset="1" style="stop-color:#00CEE7"/>
</linearGradient>
<path style="fill:url(#SVGID_00000107580359358317349170000013370823185691913614_);" d="M235.6,44.9h-0.4c0.1,0.3,0.3,0.5,0.4,0.6
	V44.9z"/>
<linearGradient id="SVGID_00000113346985193615918590000006795782318539379851_" gradientUnits="userSpaceOnUse" x1="300.395" y1="138.8828" x2="300.408" y2="138.8697" gradientTransform="matrix(1 0 0 -1 0 184)">
	<stop  offset="1.085909e-02" style="stop-color:#F6FD00"/>
	<stop  offset="0.4748" style="stop-color:#00FF7B"/>
	<stop  offset="1" style="stop-color:#00CEE7"/>
</linearGradient>
<path style="fill:url(#SVGID_00000113346985193615918590000006795782318539379851_);" d="M300.4,45.1L300.4,45.1
	C300.4,45.2,300.4,45.1,300.4,45.1L300.4,45.1z"/>
<linearGradient id="SVGID_00000021093764436228586010000016261030898378384815_" gradientUnits="userSpaceOnUse" x1="345.8708" y1="63.3996" x2="346.2211" y2="63.0493" gradientTransform="matrix(1 0 0 -1 0 184)">
	<stop  offset="1.085909e-02" style="stop-color:#F6FD00"/>
	<stop  offset="0.4748" style="stop-color:#00FF7B"/>
	<stop  offset="1" style="stop-color:#00CEE7"/>
</linearGradient>
<path style="fill:url(#SVGID_00000021093764436228586010000016261030898378384815_);" d="M345.8,120.7L345.8,120.7v0.4
	C347,120.5,346.4,120.6,345.8,120.7z"/>
<linearGradient id="SVGID_00000011713905417277216430000013207618572702364838_" gradientUnits="userSpaceOnUse" x1="436.1735" y1="104.9765" x2="436.4329" y2="104.7172" gradientTransform="matrix(1 0 0 -1 0 184)">
	<stop  offset="1.085909e-02" style="stop-color:#F6FD00"/>
	<stop  offset="0.4748" style="stop-color:#00FF7B"/>
	<stop  offset="1" style="stop-color:#00CEE7"/>
</linearGradient>
<path style="fill:url(#SVGID_00000011713905417277216430000013207618572702364838_);" d="M436.7,78.9c-0.1-0.1-0.1-0.1-0.2-0.2
	c-0.2,0.2-0.4,0.5-0.6,0.7c0.1,0,0.3,0,0.4,0C436.5,79.2,436.6,79,436.7,78.9z"/>
<linearGradient id="SVGID_00000068676997878326655780000012545209283655747746_" gradientUnits="userSpaceOnUse" x1="488.5091" y1="172.0909" x2="488.7243" y2="171.8757" gradientTransform="matrix(1 0 0 -1 0 184)">
	<stop  offset="1.085909e-02" style="stop-color:#F6FD00"/>
	<stop  offset="0.4748" style="stop-color:#00FF7B"/>
	<stop  offset="1" style="stop-color:#00CEE7"/>
</linearGradient>
<path style="fill:url(#SVGID_00000068676997878326655780000012545209283655747746_);" d="M488.5,12L488.5,12
	c0.1,0.1,0.2,0.1,0.3,0.1C488.7,12,488.6,12,488.5,12z"/>
<linearGradient id="SVGID_00000134225988209032892510000008685822684185780893_" gradientUnits="userSpaceOnUse" x1="476.8372" y1="47.2057" x2="477.4759" y2="46.567" gradientTransform="matrix(1 0 0 -1 0 184)">
	<stop  offset="1.085909e-02" style="stop-color:#F6FD00"/>
	<stop  offset="0.4748" style="stop-color:#00FF7B"/>
	<stop  offset="1" style="stop-color:#00CEE7"/>
</linearGradient>
<path style="fill:url(#SVGID_00000134225988209032892510000008685822684185780893_);" d="M477.3,136.3
	C477.3,136.3,477.3,136.4,477.3,136.3C476.1,137.8,477.5,138.9,477.3,136.3z"/>
<linearGradient id="SVGID_00000159469733500154312450000001922137731009205647_" gradientUnits="userSpaceOnUse" x1="219.3047" y1="37.9928" x2="266.6138" y2="-9.3162" gradientTransform="matrix(1 0 0 -1 0 184)">
	<stop  offset="1.085909e-02" style="stop-color:#F6FD00"/>
	<stop  offset="0.4748" style="stop-color:#00FF7B"/>
	<stop  offset="1" style="stop-color:#00CEE7"/>
</linearGradient>
<path style="fill:url(#SVGID_00000159469733500154312450000001922137731009205647_);" d="M287.9,168.7h-6.5c0,0.1,0.1,0.3,0.1,0.4
	c0,0.1-0.2,0.1-0.4,0.2c-0.1-0.2-0.2-0.4-0.2-0.6h-79.3l0.3,0.1c0.1,0,0.1,0.1,0,0.1l-0.4,0.3c-0.1,0-0.2,0-0.2-0.1
	s-0.1-0.3-0.1-0.4h0.1h-1h-0.1c-0.3,0-0.7-0.1-0.9-0.2c-0.2-0.1-0.4-0.2-0.6-0.4c-0.2-0.2-0.3-0.4-0.3-0.7h-0.3v2l0,0v1.6
	c0,0.3,0.3,0.6,0.8,0.6h89.2c0.4,0,0.8-0.2,0.8-0.6v-1.8C288.6,168.9,288.3,168.7,287.9,168.7z M239.7,170.7
	c-0.1-0.1,0.2-0.3,0.3-0.4l0.3,0.9C240.1,171,239.8,170.9,239.7,170.7z"/>
<linearGradient id="SVGID_00000085935287974989433990000008889488610370735789_" gradientUnits="userSpaceOnUse" x1="358.9108" y1="37.1984" x2="404.7678" y2="-8.6585" gradientTransform="matrix(-1 0 0 -1 1033.7124 184)">
	<stop  offset="1.085909e-02" style="stop-color:#F6FD00"/>
	<stop  offset="0.4748" style="stop-color:#00FF7B"/>
	<stop  offset="1" style="stop-color:#00CEE7"/>
</linearGradient>
<path style="fill:url(#SVGID_00000085935287974989433990000008889488610370735789_);" d="M607.5,169.2v1.8c0,0.3,0.3,0.6,0.7,0.6
	h86.5c0.4,0,0.7-0.2,0.7-0.6v-1.6l0,0v-2h-0.3c0,0.3-0.1,0.6-0.3,0.7c-0.2,0.2-0.4,0.3-0.6,0.4c-0.3,0.1-0.6,0.1-0.9,0.2h-0.1h-1
	h0.1c0,0.1,0,0.3-0.1,0.4c0,0.1-0.1,0.1-0.2,0.1l-0.4-0.3c-0.1,0,0-0.1,0-0.1l0.3-0.1H615c0,0.2-0.1,0.4-0.2,0.6
	c-0.1-0.1-0.4-0.1-0.4-0.2c0-0.1,0-0.3,0.1-0.4h-6.3C607.9,168.7,607.5,168.9,607.5,169.2z M654.3,171.2l0.3-0.9
	c0.1,0.2,0.4,0.3,0.3,0.4C654.9,170.9,654.6,171,654.3,171.2z"/>
<g>
	<path class="st28" d="M328.4,164.8c0,2.4-1.3,3.9-2.5,4.6c2.4,0.7,4.3,2.4,4.3,5.6c0,4.2-3.2,6.5-7.5,6.5h-9.9v-22.8h8.4
		C325.9,158.8,328.4,161.1,328.4,164.8z M316.7,162.3v6h4.3c2.2,0,3.5-1.2,3.5-3c0-1.9-1.3-3-3.8-3H316.7z M316.7,171.6v6.4h5.6
		c2.5,0,4.1-1.1,4.1-3.2c0-2.1-1.5-3.2-4.3-3.2H316.7z"/>
	<path class="st28" d="M363.8,181.6l-5.1-8.4h-3.8v8.4H351v-22.8h8.2c4.5,0,8.1,2.6,8.1,7.2c0,3.3-1.8,5.5-4.4,6.5l5.5,9h-4.6V181.6
		z M354.8,169.8h4c2.7,0,4.5-1.3,4.5-3.8s-1.8-3.8-4.5-3.8h-4V169.8z"/>
	<path class="st28" d="M405.8,173.5c0,5.1-3.1,8.5-8.9,8.5s-8.9-3.4-8.9-8.5v-14.7h3.9v14.4c0,3.1,1.8,5.2,5,5.2c3.3,0,5-2.1,5-5.2
		v-14.4h3.9V173.5z"/>
	<path class="st28" d="M442.4,160.8l-1.9,3.3c-1.5-1.2-3.6-2.2-6-2.2c-2.3,0-4,1-4,3.1c0,1.7,1,2.5,4.6,3.3c5.7,1.2,7.7,3.1,7.7,6.6
		c0,4.2-3.2,7.1-8.4,7.1c-3.4,0-6.4-1.1-8.6-3l2.1-3.2c1.6,1.6,4.1,2.7,6.5,2.7c2.6,0,4.4-1.1,4.4-3.3c0-1.7-1.3-2.7-4.9-3.4
		c-5.7-1.2-7.4-3.2-7.4-6.6c0-4.1,3.2-6.8,7.9-6.8C437.7,158.4,440.4,159.4,442.4,160.8z"/>
	<path class="st28" d="M478.5,160.8l-1.9,3.3c-1.5-1.2-3.6-2.2-6-2.2c-2.3,0-4,1-4,3.1c0,1.7,1,2.5,4.6,3.3c5.7,1.2,7.7,3.1,7.7,6.6
		c0,4.2-3.2,7.1-8.4,7.1c-3.4,0-6.4-1.1-8.6-3l2.1-3.2c1.6,1.6,4.1,2.7,6.5,2.7c2.6,0,4.4-1.1,4.4-3.3c0-1.7-1.3-2.7-4.9-3.4
		c-5.7-1.2-7.4-3.2-7.4-6.6c0-4.1,3.2-6.8,7.9-6.8C473.8,158.4,476.6,159.4,478.5,160.8z"/>
	<path class="st28" d="M514.2,162.3h-10.5v6h9.2v3.4h-9.2v6.3h10.8v3.6h-14.6v-22.8h14.4L514.2,162.3L514.2,162.3z"/>
	<path class="st28" d="M539.1,178.1h10.3v3.4h-14.2v-22.8h3.9V178.1z"/>
	<path class="st28" d="M584.6,160.8l-1.9,3.3c-1.5-1.2-3.6-2.2-6-2.2c-2.3,0-4,1-4,3.1c0,1.7,1,2.5,4.6,3.3c5.7,1.2,7.7,3.1,7.7,6.6
		c0,4.2-3.2,7.1-8.4,7.1c-3.4,0-6.4-1.1-8.6-3l2.1-3.2c1.5,1.6,4.1,2.7,6.5,2.7c2.6,0,4.4-1.1,4.4-3.3c0-1.7-1.3-2.7-4.9-3.4
		c-5.7-1.2-7.4-3.2-7.4-6.6c0-4.1,3.2-6.8,7.9-6.8C579.9,158.4,582.6,159.4,584.6,160.8z"/>
</g>
<rect x="-29" y="-60.6" class="st29" width="803.2" height="311.3"/>
<path id="Path_224_00000037676607225477118380000016095154903071733133_" class="st30" d="M180.7,46.5l0.3-0.3l0.7,0.9l0.3-2.8h-2.1
	c0.1,0.6,0.1,1.1,0.1,1.7L180.7,46.5z"/>
<path id="Path_226_00000052817676185939111580000012328515857445480601_" class="st30" d="M180.6,46.5L180.6,46.5l-0.6,0.6
	L180.6,46.5z"/>
<path id="Path_227_00000067204376137963817520000008311861839054173630_" class="st30" d="M280.3,53.2l0.3-0.3L280.3,53.2z"/>
<path id="Path_229_00000157284059903939055960000013370157844883525005_" class="st30" d="M235.8,44.9c0.1,0.2,0.2,0.4,0.4,0.6v-0.6
	H235.8z"/>
<path id="Path_230_00000130645551943428836510000002353345686849819026_" class="st30" d="M301.2,45.2L301.2,45.2L301.2,45.2z"/>
<path id="Path_231_00000116224278637263599610000015193960671573038734_" class="st30" d="M346.9,121L346.9,121v0.4
	C348,120.8,347.5,120.9,346.9,121z"/>
<path id="Path_233_00000106863033127185417150000016731484434253782179_" class="st30" d="M309.9,51.8L309.9,51.8v0.8
	C312.1,51.5,311,51.7,309.9,51.8z"/>
<linearGradient id="Path_234_00000036247486186944492630000006525971031169551779_" gradientUnits="userSpaceOnUse" x1="84.0629" y1="171.3629" x2="91.6045" y2="178.9045" gradientTransform="matrix(1 0 0 -1 0 184)">
	<stop  offset="1.085909e-02" style="stop-color:#F6FD00"/>
	<stop  offset="0.4748" style="stop-color:#00FF7B"/>
	<stop  offset="1" style="stop-color:#00CEE7"/>
</linearGradient>
<path id="Path_234_00000001640352024413318010000016069564689128451999_" style="fill:url(#Path_234_00000036247486186944492630000006525971031169551779_);" d="
	M90.8,12.9c-0.1-0.1-0.1-0.3-0.2-0.4c0-0.1,0.1-0.2,0.2-0.3s0.3-0.2,0.4-0.3l0,0c0.1,0.1,0.1,0.2,0.2,0.3l2.8-3.3l-6.4-7.5l-6.4,7.5
	l6.4,7.5L90.8,12.9z"/>
<linearGradient id="Path_235_00000017480947477858391290000012827784994177705133_" gradientUnits="userSpaceOnUse" x1="91.6686" y1="163.5685" x2="96.0245" y2="167.9245" gradientTransform="matrix(1 0 0 -1 0 184)">
	<stop  offset="1.085909e-02" style="stop-color:#F6FD00"/>
	<stop  offset="0.4748" style="stop-color:#00FF7B"/>
	<stop  offset="1" style="stop-color:#00CEE7"/>
</linearGradient>
<path id="Path_235_00000059283463551601611570000014546395438233104818_" style="fill:url(#Path_235_00000017480947477858391290000012827784994177705133_);" d="
	M93.8,13.9L90.4,18l3.1,2.4c-0.3,0.2-0.6,0.5-0.8,0.8l1.2,1.4l3.7-4.4L93.8,13.9z"/>
<linearGradient id="Path_236_00000000931238844511691530000007379961223487690396_" gradientUnits="userSpaceOnUse" x1="62.75" y1="151.75" x2="78.6322" y2="167.6321" gradientTransform="matrix(1 0 0 -1 0 184)">
	<stop  offset="1.085909e-02" style="stop-color:#F6FD00"/>
	<stop  offset="0.4748" style="stop-color:#00FF7B"/>
	<stop  offset="1" style="stop-color:#00CEE7"/>
</linearGradient>
<path id="Path_236_00000121278908734774988820000016772574557297729451_" style="fill:url(#Path_236_00000000931238844511691530000007379961223487690396_);" d="
	M62.7,32.2L62.7,32.2L62.7,32.2l0.2-0.1l7.7-3.6l7.9,3.7l-7.9-7.9l7.9,7.9l-3.7-7.9l3.6-7.7l0.2-0.2l-0.1,0.1l0.1-0.1l-0.2,0.2
	l-7.7,3.6l-7.9-3.7l7.9,7.9l0,0l-7.9-7.9l3.7,7.9L62.9,32L62.7,32.2z"/>
<path id="Path_237_00000065063568519012257830000014328357562185940652_" class="st30" d="M150.8,48H163C159.2,46,154.7,46,150.8,48
	z"/>
<path id="Path_240_00000080898977804007051270000007510878622199601570_" class="st30" d="M438.1,79l-0.2-0.2
	c-0.2,0.2-0.4,0.5-0.6,0.7c0.1,0,0.3,0,0.4,0L438.1,79z"/>
<path id="Path_241_00000083088729001004051390000013519002316733098418_" class="st30" d="M490.1,11.8L490.1,11.8l0.3,0.1
	L490.1,11.8z"/>
<path id="Path_243_00000124136258832190258490000012225518112850501515_" class="st30" d="M478,136.3"/>
<path id="Path_244_00000148648102957893999090000005005092334625075121_" class="st30" d="M479,136.7l-0.1,0.1
	C477.7,138.2,479.1,139.3,479,136.7z"/>
<path id="Path_245_00000130627037858441913700000016447636005601853599_" class="st30" d="M398,46.6c0,0.1,0,0.2,0,0.3l0,0V46.6z"/>
</svg>
